<svg xmlns="http://www.w3.org/2000/svg" xmlns:xlink="http://www.w3.org/1999/xlink" width="500" zoomAndPan="magnify" viewBox="0 0 375 112.499997" height="150" preserveAspectRatio="xMidYMid meet" version="1.0"><defs><clipPath id="00da3a1850"><path d="M 0.828125 0 L 374.167969 0 L 374.167969 112 L 0.828125 112 Z M 0.828125 0 " clip-rule="nonzero"/></clipPath><clipPath id="9c5a3ca74b"><path d="M 187.363281 112.003906 L 379.597656 -2.984375 L -4.867188 -2.984375 L 187.363281 112.003906 " clip-rule="nonzero"/></clipPath><clipPath id="40a4fb512f"><path d="M 0.828125 0 L 374.167969 0 L 374.167969 112.003906 L 0.828125 112.003906 Z M 0.828125 0 " clip-rule="nonzero"/></clipPath><clipPath id="7b8ec18a76"><path d="M 187.402344 112.003906 L 379.660156 -2.984375 L -4.855469 -2.984375 L 187.402344 112.003906 " clip-rule="nonzero"/></clipPath></defs><g clip-path="url(#00da3a1850)"><g clip-path="url(#9c5a3ca74b)"><path fill="#f8f8f8" d="M -4.867188 -2.984375 L 379.554688 -2.984375 L 379.554688 111.933594 L -4.867188 111.933594 Z M -4.867188 -2.984375 " fill-opacity="1" fill-rule="nonzero"/></g></g><g clip-path="url(#40a4fb512f)"><g clip-path="url(#7b8ec18a76)"><path stroke-linecap="butt" transform="matrix(0.74684, 0, 0, 0.746757, -4.855101, -2.984555)" fill="none" stroke-linejoin="miter" d="M 257.427883 153.983747 L 514.856258 0.000240736 L -0.000492922 0.000240736 L 257.427883 153.983747 " stroke="#000000" stroke-width="8" stroke-opacity="1" stroke-miterlimit="4"/></g></g></svg>