<svg xmlns="http://www.w3.org/2000/svg" xmlns:xlink="http://www.w3.org/1999/xlink" width="6000" zoomAndPan="magnify" viewBox="0 0 4500 2999.999989" height="4000" preserveAspectRatio="xMidYMid meet" version="1.0"><path stroke-linecap="round" transform="matrix(0.62403, -0.41602, 0.416025, 0.624038, 332.543343, 3298.837222)" fill="none" stroke-linejoin="miter" d="M 13.50275 13.500336 L 7197.60096 13.500336 " stroke="#000000" stroke-width="27" stroke-opacity="1" stroke-miterlimit="4"/><path stroke-linecap="round" transform="matrix(0.62403, -0.41602, 0.416025, 0.624038, 56.636365, 3579.860554)" fill="none" stroke-linejoin="miter" d="M 13.499145 13.498104 L 7197.601689 13.500993 " stroke="#000000" stroke-width="27" stroke-opacity="1" stroke-miterlimit="4"/><path stroke-linecap="round" transform="matrix(0.62403, -0.41602, 0.416025, 0.624038, 389.566632, 3449.162752)" fill="none" stroke-linejoin="miter" d="M 13.496661 13.500437 L 7197.602093 13.498992 " stroke="#000000" stroke-width="27" stroke-opacity="1" stroke-miterlimit="4"/><path stroke-linecap="round" transform="matrix(0.62403, -0.41602, 0.416025, 0.624038, 332.543343, 3579.860554)" fill="none" stroke-linejoin="miter" d="M 13.502672 13.500454 L 7197.600881 13.500454 " stroke="#000000" stroke-width="27" stroke-opacity="1" stroke-miterlimit="4"/><path stroke-linecap="round" transform="matrix(0.62403, -0.41602, 0.416025, 0.624038, 679.427017, 3449.162752)" fill="none" stroke-linejoin="miter" d="M 13.499874 13.502579 L 7197.600972 13.498245 " stroke="#000000" stroke-width="27" stroke-opacity="1" stroke-miterlimit="4"/><path stroke-linecap="round" transform="matrix(0.62403, -0.41602, 0.416025, 0.624038, 332.543343, 3773.534929)" fill="none" stroke-linejoin="miter" d="M 13.501632 13.502014 L 7197.60273 13.497681 " stroke="#000000" stroke-width="27" stroke-opacity="1" stroke-miterlimit="4"/><path stroke-linecap="round" transform="matrix(0.62403, -0.41602, 0.416025, 0.624038, 679.427017, 3933.349146)" fill="none" stroke-linejoin="miter" d="M 13.501945 13.499472 L 7197.600154 13.499472 " stroke="#000000" stroke-width="27" stroke-opacity="1" stroke-miterlimit="4"/><path stroke-linecap="round" transform="matrix(0.62403, -0.41602, 0.416025, 0.624038, 777.101517, 3773.534929)" fill="none" stroke-linejoin="miter" d="M 13.497763 13.499435 L 7197.603196 13.497991 " stroke="#000000" stroke-width="27" stroke-opacity="1" stroke-miterlimit="4"/><path stroke-linecap="round" transform="matrix(0.62403, -0.41602, 0.416025, 0.624038, 777.101517, 3675.860549)" fill="none" stroke-linejoin="miter" d="M 13.4988 13.49788 L 7197.601343 13.500769 " stroke="#000000" stroke-width="27" stroke-opacity="1" stroke-miterlimit="4"/><path stroke-linecap="round" transform="matrix(0.62403, -0.41602, 0.416025, 0.624038, 1347.985267, 3675.860549)" fill="none" stroke-linejoin="miter" d="M 13.502094 13.500076 L 7197.600303 13.500076 " stroke="#000000" stroke-width="27" stroke-opacity="1" stroke-miterlimit="4"/><path stroke-linecap="round" transform="matrix(0.62403, -0.41602, 0.416025, 0.624038, 926.682926, 3868.511637)" fill="none" stroke-linejoin="miter" d="M 13.498561 13.499734 L 7197.603993 13.49829 " stroke="#000000" stroke-width="27" stroke-opacity="1" stroke-miterlimit="4"/><path stroke-linecap="round" transform="matrix(0.62403, -0.41602, 0.416025, 0.624038, 777.101517, 3579.860554)" fill="none" stroke-linejoin="miter" d="M 13.498803 13.497875 L 7197.601346 13.500765 " stroke="#000000" stroke-width="27" stroke-opacity="1" stroke-miterlimit="4"/><path stroke-linecap="round" transform="matrix(0.62403, -0.41602, 0.416025, 0.624038, -1921.616857, 1317.899224)" fill="none" stroke-linejoin="miter" d="M 13.50243 13.500921 L 7197.600639 13.500921 " stroke="#000000" stroke-width="27" stroke-opacity="1" stroke-miterlimit="4"/><path stroke-linecap="round" transform="matrix(0.62403, -0.41602, 0.416025, 0.624038, -2197.523796, 1598.922556)" fill="none" stroke-linejoin="miter" d="M 13.498782 13.49866 L 7197.601325 13.501549 " stroke="#000000" stroke-width="27" stroke-opacity="1" stroke-miterlimit="4"/><path stroke-linecap="round" transform="matrix(0.62403, -0.41602, 0.416025, 0.624038, -1864.593651, 1468.224873)" fill="none" stroke-linejoin="miter" d="M 13.499411 13.496617 L 7197.601954 13.499506 " stroke="#000000" stroke-width="27" stroke-opacity="1" stroke-miterlimit="4"/><path stroke-linecap="round" transform="matrix(0.62403, -0.41602, 0.416025, 0.624038, -1921.616857, 1598.922556)" fill="none" stroke-linejoin="miter" d="M 13.502351 13.501039 L 7197.60056 13.501039 " stroke="#000000" stroke-width="27" stroke-opacity="1" stroke-miterlimit="4"/><path stroke-linecap="round" transform="matrix(0.62403, -0.41602, 0.416025, 0.624038, -1574.733088, 1468.224873)" fill="none" stroke-linejoin="miter" d="M 13.502427 13.498627 L 7197.600637 13.498627 " stroke="#000000" stroke-width="27" stroke-opacity="1" stroke-miterlimit="4"/><path stroke-linecap="round" transform="matrix(0.62403, -0.41602, 0.416025, 0.624038, -1921.616857, 1792.596931)" fill="none" stroke-linejoin="miter" d="M 13.501311 13.502599 L 7197.60241 13.498265 " stroke="#000000" stroke-width="27" stroke-opacity="1" stroke-miterlimit="4"/><path stroke-linecap="round" transform="matrix(0.62403, -0.41602, 0.416025, 0.624038, -1574.733088, 1952.410787)" fill="none" stroke-linejoin="miter" d="M 13.501254 13.500387 L 7197.599464 13.500387 " stroke="#000000" stroke-width="27" stroke-opacity="1" stroke-miterlimit="4"/><path stroke-linecap="round" transform="matrix(0.62403, -0.41602, 0.416025, 0.624038, -1477.058709, 1792.596931)" fill="none" stroke-linejoin="miter" d="M 13.497472 13.500039 L 7197.602904 13.498595 " stroke="#000000" stroke-width="27" stroke-opacity="1" stroke-miterlimit="4"/><path stroke-linecap="round" transform="matrix(0.62403, -0.41602, 0.416025, 0.624038, -1477.058709, 1694.922551)" fill="none" stroke-linejoin="miter" d="M 13.498509 13.498484 L 7197.601052 13.501373 " stroke="#000000" stroke-width="27" stroke-opacity="1" stroke-miterlimit="4"/><path stroke-linecap="round" transform="matrix(0.62403, -0.41602, 0.416025, 0.624038, -906.174911, 1694.922551)" fill="none" stroke-linejoin="miter" d="M 13.501749 13.500645 L 7197.599958 13.500645 " stroke="#000000" stroke-width="27" stroke-opacity="1" stroke-miterlimit="4"/><path stroke-linecap="round" transform="matrix(0.62403, -0.41602, 0.416025, 0.624038, -1327.477324, 1887.573638)" fill="none" stroke-linejoin="miter" d="M 13.498296 13.500356 L 7197.603728 13.498912 " stroke="#000000" stroke-width="27" stroke-opacity="1" stroke-miterlimit="4"/><path stroke-linecap="round" transform="matrix(0.62403, -0.41602, 0.416025, 0.624038, -1477.058709, 1598.922556)" fill="none" stroke-linejoin="miter" d="M 13.498512 13.49848 L 7197.601055 13.501369 " stroke="#000000" stroke-width="27" stroke-opacity="1" stroke-miterlimit="4"/><path stroke-linecap="round" transform="matrix(0.62403, -0.41602, 0.416025, 0.624038, -1130.919084, 1952.410787)" fill="none" stroke-linejoin="miter" d="M 13.499586 13.499274 L 7197.602129 13.502163 " stroke="#000000" stroke-width="27" stroke-opacity="1" stroke-miterlimit="4"/><path stroke-linecap="round" transform="matrix(0.62403, -0.41602, 0.416025, 0.624038, -1406.826024, 2233.434143)" fill="none" stroke-linejoin="miter" d="M 13.50029 13.499876 L 7197.602833 13.502765 " stroke="#000000" stroke-width="27" stroke-opacity="1" stroke-miterlimit="4"/><path stroke-linecap="round" transform="matrix(0.62403, -0.41602, 0.416025, 0.624038, -1073.895879, 2102.736557)" fill="none" stroke-linejoin="miter" d="M 13.50099 13.497726 L 7197.603533 13.500615 " stroke="#000000" stroke-width="27" stroke-opacity="1" stroke-miterlimit="4"/><path stroke-linecap="round" transform="matrix(0.62403, -0.41602, 0.416025, 0.624038, -1130.919084, 2233.434143)" fill="none" stroke-linejoin="miter" d="M 13.499525 13.499366 L 7197.602068 13.502255 " stroke="#000000" stroke-width="27" stroke-opacity="1" stroke-miterlimit="4"/><path stroke-linecap="round" transform="matrix(0.62403, -0.41602, 0.416025, 0.624038, -784.035436, 2102.736557)" fill="none" stroke-linejoin="miter" d="M 13.499805 13.496936 L 7197.602348 13.499825 " stroke="#000000" stroke-width="27" stroke-opacity="1" stroke-miterlimit="4"/><path stroke-linecap="round" transform="matrix(0.62403, -0.41602, 0.416025, 0.624038, -1130.919084, 2427.108494)" fill="none" stroke-linejoin="miter" d="M 13.498467 13.500952 L 7197.6039 13.499508 " stroke="#000000" stroke-width="27" stroke-opacity="1" stroke-miterlimit="4"/><path stroke-linecap="round" transform="matrix(0.62403, -0.41602, 0.416025, 0.624038, -784.035436, 2586.922495)" fill="none" stroke-linejoin="miter" d="M 13.49865 13.498669 L 7197.601193 13.501558 " stroke="#000000" stroke-width="27" stroke-opacity="1" stroke-miterlimit="4"/><path stroke-linecap="round" transform="matrix(0.62403, -0.41602, 0.416025, 0.624038, -686.361057, 2427.108494)" fill="none" stroke-linejoin="miter" d="M 13.499095 13.501371 L 7197.604527 13.499926 " stroke="#000000" stroke-width="27" stroke-opacity="1" stroke-miterlimit="4"/><path stroke-linecap="round" transform="matrix(0.62403, -0.41602, 0.416025, 0.624038, -686.361057, 2329.434138)" fill="none" stroke-linejoin="miter" d="M 13.50015 13.499789 L 7197.602693 13.502678 " stroke="#000000" stroke-width="27" stroke-opacity="1" stroke-miterlimit="4"/><path stroke-linecap="round" transform="matrix(0.62403, -0.41602, 0.416025, 0.624038, -115.477362, 2329.434138)" fill="none" stroke-linejoin="miter" d="M 13.499171 13.499136 L 7197.601714 13.502025 " stroke="#000000" stroke-width="27" stroke-opacity="1" stroke-miterlimit="4"/><path stroke-linecap="round" transform="matrix(0.62403, -0.41602, 0.416025, 0.624038, -536.779647, 2522.085226)" fill="none" stroke-linejoin="miter" d="M 13.49991 13.501643 L 7197.605343 13.500198 " stroke="#000000" stroke-width="27" stroke-opacity="1" stroke-miterlimit="4"/><path stroke-linecap="round" transform="matrix(0.62403, -0.41602, 0.416025, 0.624038, -686.361057, 2233.434143)" fill="none" stroke-linejoin="miter" d="M 13.500153 13.499784 L 7197.602696 13.502673 " stroke="#000000" stroke-width="27" stroke-opacity="1" stroke-miterlimit="4"/><path stroke-linecap="round" transform="matrix(0.62403, -0.41602, 0.416025, 0.624038, -551.084487, 2727.201528)" fill="none" stroke-linejoin="miter" d="M 13.499424 13.502737 L 7197.600523 13.498403 " stroke="#000000" stroke-width="27" stroke-opacity="1" stroke-miterlimit="4"/><path stroke-linecap="round" transform="matrix(0.62403, -0.41602, 0.416025, 0.624038, -826.99145, 3008.224644)" fill="none" stroke-linejoin="miter" d="M 13.502867 13.499288 L 7197.601076 13.499288 " stroke="#000000" stroke-width="27" stroke-opacity="1" stroke-miterlimit="4"/><path stroke-linecap="round" transform="matrix(0.62403, -0.41602, 0.416025, 0.624038, -494.061233, 2877.527082)" fill="none" stroke-linejoin="miter" d="M 13.500616 13.501393 L 7197.601714 13.497059 " stroke="#000000" stroke-width="27" stroke-opacity="1" stroke-miterlimit="4"/><path stroke-linecap="round" transform="matrix(0.62403, -0.41602, 0.416025, 0.624038, -551.084487, 3008.224644)" fill="none" stroke-linejoin="miter" d="M 13.502075 13.498761 L 7197.600285 13.498761 " stroke="#000000" stroke-width="27" stroke-opacity="1" stroke-miterlimit="4"/><path stroke-linecap="round" transform="matrix(0.62403, -0.41602, 0.416025, 0.624038, -204.200798, 2877.527082)" fill="none" stroke-linejoin="miter" d="M 13.499439 13.500608 L 7197.604871 13.499164 " stroke="#000000" stroke-width="27" stroke-opacity="1" stroke-miterlimit="4"/><path stroke-linecap="round" transform="matrix(0.624029, -0.415973, 0.415994, 0.624059, -551.083671, 3201.900435)" fill="none" stroke-linejoin="miter" d="M 13.499447 13.501796 L 7759.87734 13.499391 " stroke="#000000" stroke-width="27" stroke-opacity="1" stroke-miterlimit="4"/><path stroke-linecap="round" transform="matrix(0.624257, -0.415699, 0.415699, 0.624255, -204.196756, 3361.709012)" fill="none" stroke-linejoin="miter" d="M 13.502032 13.499624 L 7604.497988 13.502744 " stroke="#000000" stroke-width="27" stroke-opacity="1" stroke-miterlimit="4"/><path stroke-linecap="round" transform="matrix(0.624111, -0.415893, 0.4159, 0.624121, -106.524743, 3201.897843)" fill="none" stroke-linejoin="miter" d="M 13.501656 13.49806 L 7449.635609 13.499032 " stroke="#000000" stroke-width="27" stroke-opacity="1" stroke-miterlimit="4"/><path stroke-linecap="round" transform="matrix(0.624031, -0.415987, 0.416002, 0.624053, -106.526471, 3104.223247)" fill="none" stroke-linejoin="miter" d="M 13.502499 13.500228 L 7443.782861 13.499804 " stroke="#000000" stroke-width="27" stroke-opacity="1" stroke-miterlimit="4"/><path stroke-linecap="round" transform="matrix(0.62403, -0.41602, 0.416025, 0.624038, 464.357267, 3104.224639)" fill="none" stroke-linejoin="miter" d="M 13.501686 13.498508 L 7197.604229 13.501398 " stroke="#000000" stroke-width="27" stroke-opacity="1" stroke-miterlimit="4"/><path stroke-linecap="round" transform="matrix(0.62403, -0.41602, 0.416025, 0.624038, 43.054977, 3296.875727)" fill="none" stroke-linejoin="miter" d="M 13.502431 13.501019 L 7197.600641 13.501019 " stroke="#000000" stroke-width="27" stroke-opacity="1" stroke-miterlimit="4"/><path stroke-linecap="round" transform="matrix(0.625227, -0.414256, 0.41425, 0.625217, -138.446001, 3015.770819)" fill="none" stroke-linejoin="miter" d="M 13.500071 13.497482 L 7345.397676 13.498292 " stroke="#000000" stroke-width="27" stroke-opacity="1" stroke-miterlimit="4"/><path stroke-linecap="round" transform="matrix(0.62403, -0.41602, 0.416025, 0.624038, 1202.589794, 3874.317572)" fill="none" stroke-linejoin="miter" d="M 13.498799 13.497893 L 7197.601342 13.500782 " stroke="#000000" stroke-width="27" stroke-opacity="1" stroke-miterlimit="4"/><path stroke-linecap="round" transform="matrix(0.62403, -0.41602, 0.416025, 0.624038, 926.682926, 4155.340712)" fill="none" stroke-linejoin="miter" d="M 13.499263 13.49868 L 7197.601807 13.501569 " stroke="#000000" stroke-width="27" stroke-opacity="1" stroke-miterlimit="4"/><path stroke-linecap="round" transform="matrix(0.62403, -0.41602, 0.416025, 0.624038, 1259.613119, 4024.642886)" fill="none" stroke-linejoin="miter" d="M 13.499733 13.496762 L 7197.602276 13.499651 " stroke="#000000" stroke-width="27" stroke-opacity="1" stroke-miterlimit="4"/><path stroke-linecap="round" transform="matrix(0.62403, -0.41602, 0.416025, 0.624038, 1202.589794, 4155.340712)" fill="none" stroke-linejoin="miter" d="M 13.498578 13.498224 L 7197.601122 13.501113 " stroke="#000000" stroke-width="27" stroke-opacity="1" stroke-miterlimit="4"/><path stroke-linecap="round" transform="matrix(0.62403, -0.41602, 0.416025, 0.624038, 1549.473562, 4024.642886)" fill="none" stroke-linejoin="miter" d="M 13.502882 13.498861 L 7197.601091 13.498861 " stroke="#000000" stroke-width="27" stroke-opacity="1" stroke-miterlimit="4"/><path stroke-linecap="round" transform="matrix(0.62403, -0.41602, 0.416025, 0.624038, 1202.589794, 4349.014943)" fill="none" stroke-linejoin="miter" d="M 13.497432 13.499943 L 7197.602864 13.498499 " stroke="#000000" stroke-width="27" stroke-opacity="1" stroke-miterlimit="4"/><path stroke-linecap="round" transform="matrix(0.62403, -0.41602, 0.416025, 0.624038, 1549.473562, 4508.829256)" fill="none" stroke-linejoin="miter" d="M 13.502046 13.500114 L 7197.600256 13.500114 " stroke="#000000" stroke-width="27" stroke-opacity="1" stroke-miterlimit="4"/><path stroke-linecap="round" transform="matrix(0.62403, -0.41602, 0.416025, 0.624038, 1647.147822, 4349.014943)" fill="none" stroke-linejoin="miter" d="M 13.49806 13.500362 L 7197.603492 13.498917 " stroke="#000000" stroke-width="27" stroke-opacity="1" stroke-miterlimit="4"/><path stroke-linecap="round" transform="matrix(0.62403, -0.41602, 0.416025, 0.624038, 1647.147822, 4251.340707)" fill="none" stroke-linejoin="miter" d="M 13.499203 13.498647 L 7197.601746 13.501536 " stroke="#000000" stroke-width="27" stroke-opacity="1" stroke-miterlimit="4"/><path stroke-linecap="round" transform="matrix(0.62403, -0.41602, 0.416025, 0.624038, 2218.03162, 4251.340707)" fill="none" stroke-linejoin="miter" d="M 13.502443 13.500807 L 7197.600653 13.500807 " stroke="#000000" stroke-width="27" stroke-opacity="1" stroke-miterlimit="4"/><path stroke-linecap="round" transform="matrix(0.62403, -0.41602, 0.416025, 0.624038, 1796.729351, 4443.991819)" fill="none" stroke-linejoin="miter" d="M 13.498848 13.500386 L 7197.604281 13.498941 " stroke="#000000" stroke-width="27" stroke-opacity="1" stroke-miterlimit="4"/><path stroke-linecap="round" transform="matrix(0.62403, -0.41602, 0.416025, 0.624038, 1647.147822, 4155.340712)" fill="none" stroke-linejoin="miter" d="M 13.499206 13.498642 L 7197.601749 13.501531 " stroke="#000000" stroke-width="27" stroke-opacity="1" stroke-miterlimit="4"/><path stroke-linecap="round" transform="matrix(0.62403, -0.41602, 0.416025, 0.624038, 1825.380501, 4610.464931)" fill="none" stroke-linejoin="miter" d="M 13.500509 13.500762 L 7197.605942 13.499317 " stroke="#000000" stroke-width="27" stroke-opacity="1" stroke-miterlimit="4"/><path stroke-linecap="round" transform="matrix(0.62403, -0.41602, 0.416025, 0.624038, 1549.473562, 4891.488118)" fill="none" stroke-linejoin="miter" d="M 13.501089 13.501549 L 7197.602188 13.497216 " stroke="#000000" stroke-width="27" stroke-opacity="1" stroke-miterlimit="4"/></svg>