<svg xmlns="http://www.w3.org/2000/svg" xmlns:xlink="http://www.w3.org/1999/xlink" width="460" zoomAndPan="magnify" viewBox="0 0 345 187.499995" height="250" preserveAspectRatio="xMidYMid meet" version="1.0"><defs><g/><clipPath id="d307489683"><path d="M 89.675781 65.8125 L 145.027344 65.8125 L 145.027344 121.164062 L 89.675781 121.164062 Z M 89.675781 65.8125 " clip-rule="nonzero"/></clipPath><clipPath id="08ee5c63c5"><path d="M 117.351562 65.8125 C 102.066406 65.8125 89.675781 78.203125 89.675781 93.488281 C 89.675781 108.773438 102.066406 121.164062 117.351562 121.164062 C 132.636719 121.164062 145.027344 108.773438 145.027344 93.488281 C 145.027344 78.203125 132.636719 65.8125 117.351562 65.8125 " clip-rule="nonzero"/></clipPath><clipPath id="24a0a1b874"><path d="M 109.316406 64.722656 L 125.410156 64.722656 L 125.410156 103.136719 L 109.316406 103.136719 Z M 109.316406 64.722656 " clip-rule="nonzero"/></clipPath><clipPath id="8a6115a6b1"><path d="M 112.976562 64.722656 L 121.953125 64.722656 L 121.953125 84.167969 L 112.976562 84.167969 Z M 112.976562 64.722656 " clip-rule="nonzero"/></clipPath></defs><g clip-path="url(#d307489683)"><g clip-path="url(#08ee5c63c5)"><path stroke-linecap="butt" transform="matrix(0.747847, 0, 0, 0.747847, 89.675328, 65.812864)" fill="none" stroke-linejoin="miter" d="M 37.007866 -0.00048675 C 16.568994 -0.00048675 0.00060659 16.567901 0.00060659 37.006773 C 0.00060659 57.445644 16.568994 74.014032 37.007866 74.014032 C 57.446738 74.014032 74.015125 57.445644 74.015125 37.006773 C 74.015125 16.567901 57.446738 -0.00048675 37.007866 -0.00048675 " stroke="#12b0d2" stroke-width="26" stroke-opacity="1" stroke-miterlimit="4"/></g></g><g clip-path="url(#24a0a1b874)"><path fill="#ffffff" d="M 109.316406 64.722656 L 125.679688 64.722656 L 125.679688 103.289062 L 109.316406 103.289062 Z M 109.316406 64.722656 " fill-opacity="1" fill-rule="nonzero"/></g><g clip-path="url(#8a6115a6b1)"><path stroke-linecap="butt" transform="matrix(0.765957, 0, 0, 0.757566, 112.977999, 64.723945)" fill="none" stroke-linejoin="miter" d="M -0.00187559 -0.0017018 L 11.717525 -0.0017018 L 11.717525 25.666444 L -0.00187559 25.666444 L -0.00187559 -0.0017018 " stroke="#12b0d2" stroke-width="2" stroke-opacity="1" stroke-miterlimit="4"/></g><g fill="#000000" fill-opacity="1"><g transform="translate(29.188643, 118.906168)"><g><path d="M 22.511719 -17.835938 C 25.152344 -19.121094 26.4375 -21.550781 26.4375 -24.519531 C 26.4375 -30.269531 22.605469 -33.777344 15.3125 -33.777344 L 4.371094 -33.777344 L 4.371094 0 L 18.28125 0 C 25.410156 0 28.867188 -3.761719 28.867188 -9.46875 C 28.867188 -14.28125 26.320312 -16.785156 22.511719 -17.835938 Z M 15.378906 -27.957031 C 18.511719 -27.957031 19.984375 -26.320312 19.984375 -24.078125 C 19.984375 -21.785156 18.675781 -20.007812 15.683594 -20.007812 L 11.125 -20.007812 L 11.125 -27.957031 Z M 16.96875 -6.007812 L 11.125 -6.007812 L 11.125 -14.609375 L 16.832031 -14.609375 C 20.78125 -14.609375 22.066406 -12.480469 22.066406 -10.238281 C 22.066406 -8.042969 20.757812 -6.007812 16.96875 -6.007812 Z M 16.96875 -6.007812 "/></g></g><g transform="translate(59.926984, 118.906168)"><g><path d="M 23.960938 -27.605469 L 23.960938 -33.777344 L 4.371094 -33.777344 L 4.371094 0 L 23.960938 0 L 23.960938 -6.195312 L 11.429688 -6.195312 L 11.429688 -13.839844 L 22.535156 -13.839844 L 22.535156 -19.9375 L 11.429688 -19.9375 L 11.429688 -27.605469 Z M 23.960938 -27.605469 "/></g></g></g><g fill="#12b0d2" fill-opacity="1"><g transform="translate(142.833154, 119.475323)"><g><path d="M 42.949219 -52.863281 L 42.949219 -15.292969 L 19.390625 -52.863281 L 6.839844 -52.863281 L 6.839844 0 L 17.78125 0 L 17.78125 -37.792969 L 41.195312 0 L 53.886719 0 L 53.886719 -52.863281 Z M 42.949219 -52.863281 "/></g></g></g><g fill="#000000" fill-opacity="1"><g transform="translate(198.935521, 100.010908)"><g><path d="M 43.074219 0 L 40.292969 -33.773438 L 30.289062 -33.773438 L 22.996094 -12.574219 L 15.800781 -33.773438 L 5.796875 -33.773438 L 2.96875 0 L 9.980469 0 L 12.222656 -25.453125 L 20.777344 0 L 25.3125 0 L 33.867188 -25.453125 L 36.085938 0 Z M 43.074219 0 "/></g></g></g><g fill="#000000" fill-opacity="1"><g transform="translate(244.973352, 100.010908)"><g><path d="M 26.972656 0 L 34.144531 0 L 21.710938 -33.773438 L 13.136719 -33.773438 L 0.699219 0 L 7.875 0 L 10.332031 -6.964844 L 24.515625 -6.964844 Z M 12.386719 -12.832031 L 17.433594 -27.15625 L 22.460938 -12.832031 Z M 12.386719 -12.832031 "/></g></g></g><g fill="#000000" fill-opacity="1"><g transform="translate(279.817219, 100.010908)"><g><path d="M 0.679688 0 L 9.605469 0 L 17.996094 -11.941406 L 26.386719 0 L 35.3125 0 L 22.15625 -17.621094 L 34.941406 -33.773438 L 26.410156 -33.773438 L 17.996094 -22.695312 L 9.582031 -33.773438 L 1.050781 -33.773438 L 13.835938 -17.621094 Z M 0.679688 0 "/></g></g></g></svg>