<svg xmlns="http://www.w3.org/2000/svg" xmlns:xlink="http://www.w3.org/1999/xlink" width="755" zoomAndPan="magnify" viewBox="0 0 567 382.499989" height="510" preserveAspectRatio="xMidYMid meet" version="1.0"><defs><clipPath id="c643bc6a09"><path d="M 0.371094 32 L 212 32 L 212 355 L 0.371094 355 Z M 0.371094 32 " clip-rule="nonzero"/></clipPath><clipPath id="5147ec8df5"><path d="M 7 208 L 559 208 L 559 382 L 7 382 Z M 7 208 " clip-rule="nonzero"/></clipPath><clipPath id="6d51be1eff"><path d="M 360 31 L 566.628906 31 L 566.628906 356 L 360 356 Z M 360 31 " clip-rule="nonzero"/></clipPath></defs><g clip-path="url(#c643bc6a09)"><path fill="#1e90ff" d="M 211.933594 193.542969 L 0.355469 32.765625 L 0.355469 354.3125 Z M 211.933594 193.542969 " fill-opacity="1" fill-rule="nonzero"/></g><path fill="#1e90ff" d="M 298.722656 213.011719 L 560.742188 6.867188 C 556.863281 2.757812 551.378906 0.167969 545.359375 0.167969 L 21.597656 0.167969 C 15.167969 0.167969 9.492188 3.085938 5.558594 7.589844 L 276.214844 213.214844 C 282.15625 217.738281 292.863281 217.648438 298.722656 213.011719 " fill-opacity="1" fill-rule="nonzero"/><g clip-path="url(#5147ec8df5)"><path fill="#1e90ff" d="M 313.085938 231.261719 C 305.878906 236.910156 296.601562 239.75 287.296875 239.75 C 278.269531 239.75 269.269531 237.066406 262.179688 231.699219 L 231.121094 208.121094 L 7.589844 377.953125 C 11.355469 381.261719 16.214844 383.332031 21.597656 383.332031 L 545.355469 383.332031 C 550.367188 383.332031 554.960938 381.492188 558.625 378.5625 L 342.230469 208.300781 L 313.085938 231.261719 " fill-opacity="1" fill-rule="nonzero"/></g><g clip-path="url(#6d51be1eff)"><path fill="#1e90ff" d="M 566.601562 355.316406 L 566.601562 31.785156 L 360.996094 193.5625 L 566.601562 355.316406 " fill-opacity="1" fill-rule="nonzero"/></g></svg>