<svg xmlns="http://www.w3.org/2000/svg" xmlns:xlink="http://www.w3.org/1999/xlink" width="200" zoomAndPan="magnify" viewBox="0 0 150 149.999998" height="200" preserveAspectRatio="xMidYMid meet" version="1.0"><defs><g/><clipPath id="3055f158dc"><path d="M 54.824219 9.011719 L 59.359375 9.011719 L 59.359375 13.546875 L 54.824219 13.546875 Z M 54.824219 9.011719 " clip-rule="nonzero"/></clipPath><clipPath id="34a50c4e4a"><path d="M 57.09375 9.011719 C 55.839844 9.011719 54.824219 10.027344 54.824219 11.277344 C 54.824219 12.53125 55.839844 13.546875 57.09375 13.546875 C 58.34375 13.546875 59.359375 12.53125 59.359375 11.277344 C 59.359375 10.027344 58.34375 9.011719 57.09375 9.011719 " clip-rule="nonzero"/></clipPath><clipPath id="1b311a1d61"><path d="M 7.988281 57.011719 L 12.523438 57.011719 L 12.523438 61.546875 L 7.988281 61.546875 Z M 7.988281 57.011719 " clip-rule="nonzero"/></clipPath><clipPath id="88327d5c1e"><path d="M 10.253906 57.011719 C 9.003906 57.011719 7.988281 58.027344 7.988281 59.277344 C 7.988281 60.53125 9.003906 61.546875 10.253906 61.546875 C 11.507812 61.546875 12.523438 60.53125 12.523438 59.277344 C 12.523438 58.027344 11.507812 57.011719 10.253906 57.011719 " clip-rule="nonzero"/></clipPath><clipPath id="d998a185cb"><path d="M 117.09375 24.175781 L 121.628906 24.175781 L 121.628906 28.710938 L 117.09375 28.710938 Z M 117.09375 24.175781 " clip-rule="nonzero"/></clipPath><clipPath id="6a0223e918"><path d="M 119.359375 24.175781 C 118.109375 24.175781 117.09375 25.191406 117.09375 26.441406 C 117.09375 27.695312 118.109375 28.710938 119.359375 28.710938 C 120.613281 28.710938 121.628906 27.695312 121.628906 26.441406 C 121.628906 25.191406 120.613281 24.175781 119.359375 24.175781 " clip-rule="nonzero"/></clipPath><clipPath id="0ba31c6d42"><path d="M 27.800781 120.359375 L 32.335938 120.359375 L 32.335938 124.894531 L 27.800781 124.894531 Z M 27.800781 120.359375 " clip-rule="nonzero"/></clipPath><clipPath id="3b81cdabe4"><path d="M 30.070312 120.359375 C 28.816406 120.359375 27.800781 121.375 27.800781 122.628906 C 27.800781 123.878906 28.816406 124.894531 30.070312 124.894531 C 31.320312 124.894531 32.335938 123.878906 32.335938 122.628906 C 32.335938 121.375 31.320312 120.359375 30.070312 120.359375 " clip-rule="nonzero"/></clipPath><clipPath id="1863dcc9f7"><path d="M 93.09375 135 L 97.628906 135 L 97.628906 139.535156 L 93.09375 139.535156 Z M 93.09375 135 " clip-rule="nonzero"/></clipPath><clipPath id="8584b3ead9"><path d="M 95.359375 135 C 94.109375 135 93.09375 136.015625 93.09375 137.265625 C 93.09375 138.519531 94.109375 139.535156 95.359375 139.535156 C 96.613281 139.535156 97.628906 138.519531 97.628906 137.265625 C 97.628906 136.015625 96.613281 135 95.359375 135 " clip-rule="nonzero"/></clipPath><clipPath id="5474b96827"><path d="M 137.847656 84.359375 L 142.382812 84.359375 L 142.382812 88.894531 L 137.847656 88.894531 Z M 137.847656 84.359375 " clip-rule="nonzero"/></clipPath><clipPath id="1dd25fd681"><path d="M 140.117188 84.359375 C 138.863281 84.359375 137.847656 85.375 137.847656 86.628906 C 137.847656 87.878906 138.863281 88.894531 140.117188 88.894531 C 141.367188 88.894531 142.382812 87.878906 142.382812 86.628906 C 142.382812 85.375 141.367188 84.359375 140.117188 84.359375 " clip-rule="nonzero"/></clipPath></defs><g fill="#10193d" fill-opacity="1"><g transform="translate(84.175933, 130.936296)"><g><path d="M -4.40625 0.21875 C -3 0.101562 -1.953125 0.367188 -1.265625 1.015625 C -0.578125 1.671875 -0.164062 2.78125 -0.03125 4.34375 L 0.09375 5.875 L -2.96875 6.125 L -3.140625 4.171875 C -3.203125 3.390625 -3.484375 3.019531 -3.984375 3.0625 C -4.253906 3.082031 -4.4375 3.179688 -4.53125 3.359375 C -4.625 3.535156 -4.65625 3.816406 -4.625 4.203125 C -4.582031 4.710938 -4.488281 5.128906 -4.34375 5.453125 C -4.195312 5.773438 -4.019531 6.039062 -3.8125 6.25 C -3.601562 6.457031 -3.238281 6.78125 -2.71875 7.21875 L -1.265625 8.4375 C -0.140625 9.375 0.46875 10.457031 0.5625 11.6875 C 0.675781 13.03125 0.457031 14.078125 -0.09375 14.828125 C -0.644531 15.578125 -1.507812 16 -2.6875 16.09375 C -4.09375 16.207031 -5.132812 15.914062 -5.8125 15.21875 C -6.488281 14.519531 -6.894531 13.378906 -7.03125 11.796875 L -3.859375 11.53125 L -3.75 12.59375 C -3.726562 12.800781 -3.648438 12.957031 -3.515625 13.0625 C -3.390625 13.175781 -3.226562 13.226562 -3.03125 13.21875 C -2.78125 13.195312 -2.597656 13.113281 -2.484375 12.96875 C -2.378906 12.832031 -2.335938 12.648438 -2.359375 12.421875 C -2.398438 11.921875 -2.738281 11.414062 -3.375 10.90625 L -5.34375 9.3125 C -5.789062 8.925781 -6.164062 8.5625 -6.46875 8.21875 C -6.78125 7.875 -7.039062 7.457031 -7.25 6.96875 C -7.46875 6.476562 -7.601562 5.890625 -7.65625 5.203125 C -7.78125 3.671875 -7.59375 2.484375 -7.09375 1.640625 C -6.601562 0.796875 -5.707031 0.320312 -4.40625 0.21875 Z M -4.40625 0.21875 "/></g></g></g><g fill="#10193d" fill-opacity="1"><g transform="translate(76.636828, 131.620533)"><g><path d="M -4.34375 -0.375 C -3.195312 -0.3125 -2.296875 0.09375 -1.640625 0.84375 C -0.992188 1.59375 -0.703125 2.597656 -0.765625 3.859375 L -1.15625 11.0625 C -1.238281 12.613281 -1.609375 13.769531 -2.265625 14.53125 C -2.929688 15.289062 -3.925781 15.632812 -5.25 15.5625 C -6.394531 15.5 -7.304688 15.128906 -7.984375 14.453125 C -8.660156 13.785156 -8.96875 12.859375 -8.90625 11.671875 L -8.75 8.96875 L -5.640625 9.125 L -5.765625 11.453125 C -5.796875 11.898438 -5.757812 12.207031 -5.65625 12.375 C -5.550781 12.550781 -5.363281 12.648438 -5.09375 12.671875 C -4.820312 12.679688 -4.628906 12.59375 -4.515625 12.40625 C -4.398438 12.21875 -4.332031 11.9375 -4.3125 11.5625 L -3.890625 3.71875 C -3.867188 3.300781 -3.910156 2.992188 -4.015625 2.796875 C -4.128906 2.609375 -4.304688 2.507812 -4.546875 2.5 C -5.035156 2.46875 -5.300781 2.847656 -5.34375 3.640625 L -5.5 6.453125 L -8.640625 6.296875 L -8.484375 3.359375 C -8.347656 0.734375 -6.96875 -0.507812 -4.34375 -0.375 Z M -4.34375 -0.375 "/></g></g></g><g fill="#10193d" fill-opacity="1"><g transform="translate(68.858638, 131.264569)"><g><path d="M -3.65625 15.25 L -8.390625 14.328125 C -9.140625 14.179688 -9.6875 13.898438 -10.03125 13.484375 C -10.375 13.066406 -10.554688 12.535156 -10.578125 11.890625 C -10.597656 11.242188 -10.515625 10.441406 -10.328125 9.484375 C -10.160156 8.609375 -9.914062 7.945312 -9.59375 7.5 C -9.28125 7.0625 -8.820312 6.800781 -8.21875 6.71875 C -8.675781 6.53125 -8.972656 6.234375 -9.109375 5.828125 C -9.242188 5.421875 -9.25 4.898438 -9.125 4.265625 L -7.96875 -1.546875 L -4.953125 -0.953125 L -6.125 5.0625 C -6.207031 5.488281 -6.175781 5.773438 -6.03125 5.921875 C -5.894531 6.078125 -5.597656 6.195312 -5.140625 6.28125 L -3.78125 -0.734375 L -0.671875 -0.125 Z M -6.421875 8.796875 C -6.847656 8.710938 -7.148438 9.140625 -7.328125 10.078125 C -7.410156 10.484375 -7.453125 10.789062 -7.453125 11 C -7.460938 11.207031 -7.425781 11.359375 -7.34375 11.453125 C -7.257812 11.546875 -7.128906 11.613281 -6.953125 11.65625 L -6.234375 11.796875 L -5.6875 8.9375 Z M -6.421875 8.796875 "/></g></g></g><g fill="#10193d" fill-opacity="1"><g transform="translate(61.154396, 129.839453)"><g><path d="M -4.15625 -1.578125 C -2.945312 -1.171875 -2.15625 -0.5 -1.78125 0.4375 C -1.414062 1.382812 -1.460938 2.519531 -1.921875 3.84375 L -4.34375 10.890625 C -4.78125 12.171875 -5.421875 13.03125 -6.265625 13.46875 C -7.109375 13.90625 -8.132812 13.921875 -9.34375 13.515625 C -10.53125 13.097656 -11.320312 12.457031 -11.71875 11.59375 C -12.113281 10.726562 -12.09375 9.65625 -11.65625 8.375 L -9.234375 1.328125 C -8.773438 0.00390625 -8.109375 -0.910156 -7.234375 -1.421875 C -6.367188 -1.941406 -5.34375 -1.992188 -4.15625 -1.578125 Z M -5.09375 1.140625 C -5.34375 1.046875 -5.550781 1.097656 -5.71875 1.296875 C -5.894531 1.503906 -6.054688 1.816406 -6.203125 2.234375 L -8.6875 9.46875 C -8.800781 9.789062 -8.847656 10.066406 -8.828125 10.296875 C -8.816406 10.523438 -8.679688 10.679688 -8.421875 10.765625 C -7.921875 10.941406 -7.539062 10.660156 -7.28125 9.921875 L -4.796875 2.703125 C -4.648438 2.265625 -4.59375 1.914062 -4.625 1.65625 C -4.65625 1.40625 -4.8125 1.234375 -5.09375 1.140625 Z M -5.09375 1.140625 "/></g></g></g><g fill="#10193d" fill-opacity="1"><g transform="translate(53.522218, 127.217159)"><g><path d="M -0.609375 -0.296875 L -7.546875 13.734375 L -10.375 12.328125 L -4.609375 0.671875 L -7.5 -0.75 L -6.328125 -3.125 Z M -0.609375 -0.296875 "/></g></g></g><g fill="#10193d" fill-opacity="1"><g transform="translate(47.656334, 124.364805)"><g><path d="M -0.578125 -0.375 L -9.078125 12.765625 L -11.71875 11.0625 L -4.65625 0.15625 L -7.375 -1.59375 L -5.9375 -3.828125 Z M -0.578125 -0.375 "/></g></g></g><g fill="#10193d" fill-opacity="1"><g transform="translate(42.089794, 120.713756)"><g/></g></g><g fill="#10193d" fill-opacity="1"><g transform="translate(39.059351, 118.354006)"><g/></g></g><g fill="#10193d" fill-opacity="1"><g transform="translate(36.195799, 115.794294)"><g/></g></g><g fill="#10193d" fill-opacity="1"><g transform="translate(33.51231, 113.046396)"><g/></g></g><g fill="#10193d" fill-opacity="1"><g transform="translate(31.054262, 110.351471)"><g><path d="M -2.375 -3.71875 C -1.582031 -2.539062 -1.296875 -1.492188 -1.515625 -0.578125 C -1.734375 0.328125 -2.488281 1.226562 -3.78125 2.125 L -5.046875 2.984375 L -6.796875 0.453125 L -5.1875 -0.65625 C -4.539062 -1.09375 -4.359375 -1.519531 -4.640625 -1.9375 C -4.785156 -2.15625 -4.957031 -2.257812 -5.15625 -2.25 C -5.363281 -2.25 -5.625 -2.140625 -5.9375 -1.921875 C -6.363281 -1.628906 -6.675781 -1.335938 -6.875 -1.046875 C -7.082031 -0.765625 -7.226562 -0.484375 -7.3125 -0.203125 C -7.394531 0.0664062 -7.492188 0.539062 -7.609375 1.21875 L -7.96875 3.09375 C -8.21875 4.519531 -8.851562 5.585938 -9.875 6.296875 C -10.976562 7.054688 -11.988281 7.378906 -12.90625 7.265625 C -13.832031 7.160156 -14.632812 6.617188 -15.3125 5.640625 C -16.101562 4.484375 -16.363281 3.4375 -16.09375 2.5 C -15.820312 1.5625 -15.03125 0.640625 -13.71875 -0.265625 L -11.921875 2.375 L -12.8125 2.984375 C -12.976562 3.109375 -13.070312 3.253906 -13.09375 3.421875 C -13.125 3.585938 -13.085938 3.753906 -12.984375 3.921875 C -12.835938 4.128906 -12.675781 4.242188 -12.5 4.265625 C -12.320312 4.296875 -12.140625 4.242188 -11.953125 4.109375 C -11.535156 3.816406 -11.265625 3.273438 -11.140625 2.484375 L -10.734375 -0.015625 C -10.628906 -0.597656 -10.5 -1.109375 -10.34375 -1.546875 C -10.195312 -1.984375 -9.960938 -2.414062 -9.640625 -2.84375 C -9.328125 -3.28125 -8.890625 -3.691406 -8.328125 -4.078125 C -7.054688 -4.953125 -5.929688 -5.378906 -4.953125 -5.359375 C -3.972656 -5.335938 -3.113281 -4.789062 -2.375 -3.71875 Z M -2.375 -3.71875 "/></g></g></g><g fill="#10193d" fill-opacity="1"><g transform="translate(26.718431, 104.146778)"><g><path d="M -1.828125 -3.9375 C -1.304688 -2.914062 -1.207031 -1.9375 -1.53125 -1 C -1.863281 -0.0703125 -2.59375 0.675781 -3.71875 1.25 L -10.171875 4.484375 C -11.554688 5.179688 -12.742188 5.429688 -13.734375 5.234375 C -14.722656 5.035156 -15.515625 4.34375 -16.109375 3.15625 C -16.617188 2.125 -16.75 1.148438 -16.5 0.234375 C -16.257812 -0.679688 -15.609375 -1.410156 -14.546875 -1.953125 L -12.140625 -3.15625 L -10.734375 -0.359375 L -12.8125 0.6875 C -13.207031 0.882812 -13.453125 1.066406 -13.546875 1.234375 C -13.648438 1.410156 -13.644531 1.617188 -13.53125 1.859375 C -13.40625 2.097656 -13.234375 2.222656 -13.015625 2.234375 C -12.796875 2.242188 -12.519531 2.164062 -12.1875 2 L -5.15625 -1.53125 C -4.789062 -1.71875 -4.546875 -1.90625 -4.421875 -2.09375 C -4.304688 -2.28125 -4.304688 -2.484375 -4.421875 -2.703125 C -4.640625 -3.140625 -5.101562 -3.179688 -5.8125 -2.828125 L -8.34375 -1.5625 L -9.75 -4.375 L -7.109375 -5.703125 C -4.765625 -6.878906 -3.003906 -6.289062 -1.828125 -3.9375 Z M -1.828125 -3.9375 "/></g></g></g><g fill="#10193d" fill-opacity="1"><g transform="translate(23.168719, 97.215471)"><g><path d="M -15.046875 4.390625 L -16.59375 -0.15625 C -16.84375 -0.882812 -16.867188 -1.503906 -16.671875 -2.015625 C -16.484375 -2.523438 -16.117188 -2.945312 -15.578125 -3.28125 C -15.035156 -3.625 -14.300781 -3.957031 -13.375 -4.28125 C -12.53125 -4.5625 -11.832031 -4.671875 -11.28125 -4.609375 C -10.738281 -4.554688 -10.285156 -4.289062 -9.921875 -3.8125 C -9.984375 -4.289062 -9.867188 -4.691406 -9.578125 -5.015625 C -9.296875 -5.335938 -8.847656 -5.601562 -8.234375 -5.8125 L -2.609375 -7.671875 L -1.625 -4.78125 L -7.421875 -2.8125 C -7.835938 -2.664062 -8.078125 -2.492188 -8.140625 -2.296875 C -8.203125 -2.097656 -8.160156 -1.785156 -8.015625 -1.359375 L -1.25 -3.65625 L -0.21875 -0.65625 Z M -10.8125 -1.203125 C -10.957031 -1.617188 -11.484375 -1.675781 -12.390625 -1.375 C -12.773438 -1.238281 -13.0625 -1.117188 -13.25 -1.015625 C -13.4375 -0.910156 -13.550781 -0.800781 -13.59375 -0.6875 C -13.632812 -0.570312 -13.625 -0.425781 -13.5625 -0.25 L -13.328125 0.421875 L -10.578125 -0.515625 Z M -10.8125 -1.203125 "/></g></g></g><g fill="#10193d" fill-opacity="1"><g transform="translate(20.582944, 89.819549)"><g><path d="M -0.6875 -4.390625 C -0.445312 -3.140625 -0.644531 -2.117188 -1.28125 -1.328125 C -1.925781 -0.535156 -2.929688 -0.0078125 -4.296875 0.25 L -11.625 1.640625 C -12.945312 1.898438 -14.003906 1.769531 -14.796875 1.25 C -15.597656 0.726562 -16.117188 -0.15625 -16.359375 -1.40625 C -16.597656 -2.644531 -16.4375 -3.648438 -15.875 -4.421875 C -15.320312 -5.191406 -14.382812 -5.707031 -13.0625 -5.96875 L -5.734375 -7.359375 C -4.359375 -7.617188 -3.234375 -7.5 -2.359375 -7 C -1.484375 -6.5 -0.925781 -5.628906 -0.6875 -4.390625 Z M -3.515625 -3.84375 C -3.566406 -4.113281 -3.722656 -4.269531 -3.984375 -4.3125 C -4.242188 -4.363281 -4.585938 -4.351562 -5.015625 -4.28125 L -12.546875 -2.84375 C -12.878906 -2.78125 -13.132812 -2.679688 -13.3125 -2.546875 C -13.5 -2.421875 -13.566406 -2.222656 -13.515625 -1.953125 C -13.421875 -1.441406 -12.992188 -1.257812 -12.234375 -1.40625 L -4.71875 -2.84375 C -4.269531 -2.925781 -3.941406 -3.039062 -3.734375 -3.1875 C -3.535156 -3.332031 -3.460938 -3.550781 -3.515625 -3.84375 Z M -3.515625 -3.84375 "/></g></g></g><g fill="#10193d" fill-opacity="1"><g transform="translate(19.070803, 81.894712)"><g><path d="M -0.046875 -0.6875 L -15.671875 0.25 L -15.859375 -2.890625 L -2.890625 -3.671875 L -3.078125 -6.890625 L -0.421875 -7.046875 Z M -0.046875 -0.6875 "/></g></g></g><g fill="#10193d" fill-opacity="1"><g transform="translate(18.636386, 75.386571)"><g><path d="M 0.03125 -0.6875 L -15.59375 -1.546875 L -15.421875 -4.6875 L -2.453125 -3.96875 L -2.265625 -7.1875 L 0.390625 -7.046875 Z M 0.03125 -0.6875 "/></g></g></g><g fill="#10193d" fill-opacity="1"><g transform="translate(19.0458, 68.738804)"><g/></g></g><g fill="#10193d" fill-opacity="1"><g transform="translate(19.590746, 64.936816)"><g/></g></g><g fill="#10193d" fill-opacity="1"><g transform="translate(20.392105, 61.180507)"><g/></g></g><g fill="#10193d" fill-opacity="1"><g transform="translate(21.44619, 57.487137)"><g/></g></g><g fill="#10193d" fill-opacity="1"><g transform="translate(22.565532, 54.01687)"><g><path d="M 2.046875 -3.90625 C 1.429688 -2.625 0.671875 -1.851562 -0.234375 -1.59375 C -1.140625 -1.34375 -2.300781 -1.5625 -3.71875 -2.25 L -5.109375 -2.90625 L -3.765625 -5.671875 L -2 -4.828125 C -1.300781 -4.484375 -0.84375 -4.535156 -0.625 -4.984375 C -0.507812 -5.222656 -0.5 -5.425781 -0.59375 -5.59375 C -0.695312 -5.769531 -0.925781 -5.941406 -1.28125 -6.109375 C -1.738281 -6.335938 -2.140625 -6.46875 -2.484375 -6.5 C -2.835938 -6.539062 -3.15625 -6.523438 -3.4375 -6.453125 C -3.726562 -6.378906 -4.195312 -6.226562 -4.84375 -6 L -6.640625 -5.390625 C -8.003906 -4.890625 -9.242188 -4.910156 -10.359375 -5.453125 C -11.566406 -6.035156 -12.351562 -6.753906 -12.71875 -7.609375 C -13.082031 -8.460938 -13.007812 -9.421875 -12.5 -10.484375 C -11.882812 -11.753906 -11.101562 -12.503906 -10.15625 -12.734375 C -9.207031 -12.960938 -8.019531 -12.726562 -6.59375 -12.03125 L -7.984375 -9.15625 L -8.953125 -9.625 C -9.140625 -9.71875 -9.3125 -9.734375 -9.46875 -9.671875 C -9.632812 -9.617188 -9.765625 -9.503906 -9.859375 -9.328125 C -9.960938 -9.097656 -9.976562 -8.898438 -9.90625 -8.734375 C -9.84375 -8.566406 -9.707031 -8.4375 -9.5 -8.34375 C -9.039062 -8.113281 -8.4375 -8.144531 -7.6875 -8.4375 L -5.328125 -9.3125 C -4.765625 -9.507812 -4.253906 -9.65625 -3.796875 -9.75 C -3.347656 -9.84375 -2.851562 -9.859375 -2.3125 -9.796875 C -1.78125 -9.734375 -1.207031 -9.550781 -0.59375 -9.25 C 0.789062 -8.582031 1.71875 -7.816406 2.1875 -6.953125 C 2.65625 -6.085938 2.609375 -5.070312 2.046875 -3.90625 Z M 2.046875 -3.90625 "/></g></g></g><g fill="#10193d" fill-opacity="1"><g transform="translate(25.800193, 47.174758)"><g><path d="M 2.515625 -3.546875 C 1.878906 -2.585938 1.070312 -2.019531 0.09375 -1.84375 C -0.875 -1.664062 -1.878906 -1.925781 -2.921875 -2.625 L -8.9375 -6.609375 C -10.238281 -7.472656 -11.046875 -8.378906 -11.359375 -9.328125 C -11.671875 -10.285156 -11.460938 -11.316406 -10.734375 -12.421875 C -10.097656 -13.378906 -9.316406 -13.976562 -8.390625 -14.21875 C -7.472656 -14.457031 -6.519531 -14.25 -5.53125 -13.59375 L -3.265625 -12.09375 L -5 -9.484375 L -6.953125 -10.78125 C -7.316406 -11.03125 -7.597656 -11.15625 -7.796875 -11.15625 C -8.003906 -11.15625 -8.179688 -11.039062 -8.328125 -10.8125 C -8.472656 -10.582031 -8.492188 -10.375 -8.390625 -10.1875 C -8.296875 -10 -8.09375 -9.800781 -7.78125 -9.59375 L -1.234375 -5.25 C -0.890625 -5.019531 -0.601562 -4.898438 -0.375 -4.890625 C -0.15625 -4.890625 0.0195312 -4.988281 0.15625 -5.1875 C 0.425781 -5.59375 0.234375 -6.015625 -0.421875 -6.453125 L -2.78125 -8.015625 L -1.03125 -10.640625 L 1.4375 -9 C 3.613281 -7.550781 3.972656 -5.734375 2.515625 -3.546875 Z M 2.515625 -3.546875 "/></g></g></g><g fill="#10193d" fill-opacity="1"><g transform="translate(30.057424, 40.651742)"><g><path d="M -11.28125 -10.875 L -8.09375 -14.484375 C -7.582031 -15.054688 -7.054688 -15.382812 -6.515625 -15.46875 C -5.984375 -15.5625 -5.429688 -15.453125 -4.859375 -15.140625 C -4.296875 -14.835938 -3.648438 -14.363281 -2.921875 -13.71875 C -2.253906 -13.132812 -1.8125 -12.585938 -1.59375 -12.078125 C -1.375 -11.578125 -1.382812 -11.050781 -1.625 -10.5 C -1.21875 -10.789062 -0.800781 -10.890625 -0.375 -10.796875 C 0.0390625 -10.710938 0.488281 -10.457031 0.96875 -10.03125 L 5.375 -6.078125 L 3.34375 -3.78125 L -1.25 -7.84375 C -1.570312 -8.125 -1.832031 -8.242188 -2.03125 -8.203125 C -2.226562 -8.160156 -2.476562 -7.96875 -2.78125 -7.625 L 2.5625 -2.890625 L 0.453125 -0.515625 Z M -4.328125 -10 C -4.035156 -10.320312 -4.242188 -10.796875 -4.953125 -11.421875 C -5.265625 -11.703125 -5.507812 -11.894531 -5.6875 -12 C -5.875 -12.113281 -6.023438 -12.160156 -6.140625 -12.140625 C -6.265625 -12.128906 -6.390625 -12.050781 -6.515625 -11.90625 L -6.984375 -11.375 L -4.8125 -9.453125 Z M -4.328125 -10 "/></g></g></g><g fill="#10193d" fill-opacity="1"><g transform="translate(35.195387, 34.736763)"><g><path d="M 3.46875 -2.78125 C 2.5 -1.945312 1.515625 -1.609375 0.515625 -1.765625 C -0.484375 -1.929688 -1.4375 -2.539062 -2.34375 -3.59375 L -7.1875 -9.265625 C -8.070312 -10.296875 -8.488281 -11.285156 -8.4375 -12.234375 C -8.382812 -13.179688 -7.875 -14.070312 -6.90625 -14.90625 C -5.945312 -15.71875 -4.992188 -16.078125 -4.046875 -15.984375 C -3.097656 -15.890625 -2.179688 -15.328125 -1.296875 -14.296875 L 3.546875 -8.625 C 4.453125 -7.5625 4.90625 -6.523438 4.90625 -5.515625 C 4.90625 -4.503906 4.425781 -3.59375 3.46875 -2.78125 Z M 1.59375 -4.96875 C 1.800781 -5.132812 1.863281 -5.34375 1.78125 -5.59375 C 1.695312 -5.851562 1.507812 -6.148438 1.21875 -6.484375 L -3.75 -12.296875 C -3.96875 -12.554688 -4.175781 -12.738281 -4.375 -12.84375 C -4.582031 -12.945312 -4.789062 -12.90625 -5 -12.71875 C -5.394531 -12.382812 -5.34375 -11.921875 -4.84375 -11.328125 L 0.125 -5.515625 C 0.425781 -5.160156 0.691406 -4.929688 0.921875 -4.828125 C 1.148438 -4.722656 1.375 -4.769531 1.59375 -4.96875 Z M 1.59375 -4.96875 "/></g></g></g><g fill="#10193d" fill-opacity="1"><g transform="translate(41.323792, 29.494045)"><g><path d="M 0.578125 -0.375 L -8 -13.46875 L -5.375 -15.1875 L 1.75 -4.3125 L 4.453125 -6.09375 L 5.90625 -3.875 Z M 0.578125 -0.375 "/></g></g></g><g fill="#10193d" fill-opacity="1"><g transform="translate(46.758548, 25.88739)"><g><path d="M 0.609375 -0.3125 L -6.40625 -14.3125 L -3.59375 -15.71875 L 2.234375 -4.09375 L 5.125 -5.53125 L 6.3125 -3.15625 Z M 0.609375 -0.3125 "/></g></g></g><g fill="#10193d" fill-opacity="1"><g transform="translate(52.735117, 22.940851)"><g/></g></g><g fill="#10193d" fill-opacity="1"><g transform="translate(56.306394, 21.527329)"><g/></g></g><g fill="#10193d" fill-opacity="1"><g transform="translate(59.965248, 20.359085)"><g/></g></g><g fill="#10193d" fill-opacity="1"><g transform="translate(63.694868, 19.441492)"><g/></g></g><g fill="#10193d" fill-opacity="1"><g transform="translate(67.262555, 18.692339)"><g><path d="M 4.40625 -0.15625 C 3 -0.0625 1.953125 -0.34375 1.265625 -1 C 0.585938 -1.664062 0.195312 -2.78125 0.09375 -4.34375 L -0.015625 -5.875 L 3.046875 -6.078125 L 3.1875 -4.125 C 3.238281 -3.351562 3.515625 -2.988281 4.015625 -3.03125 C 4.285156 -3.039062 4.46875 -3.132812 4.5625 -3.3125 C 4.664062 -3.488281 4.703125 -3.765625 4.671875 -4.140625 C 4.640625 -4.648438 4.550781 -5.066406 4.40625 -5.390625 C 4.257812 -5.710938 4.082031 -5.976562 3.875 -6.1875 C 3.675781 -6.40625 3.316406 -6.738281 2.796875 -7.1875 L 1.375 -8.4375 C 0.269531 -9.382812 -0.328125 -10.472656 -0.421875 -11.703125 C -0.503906 -13.046875 -0.269531 -14.085938 0.28125 -14.828125 C 0.84375 -15.566406 1.710938 -15.976562 2.890625 -16.0625 C 4.296875 -16.15625 5.332031 -15.847656 6 -15.140625 C 6.675781 -14.429688 7.070312 -13.28125 7.1875 -11.6875 L 4 -11.46875 L 3.90625 -12.546875 C 3.894531 -12.753906 3.820312 -12.910156 3.6875 -13.015625 C 3.5625 -13.128906 3.398438 -13.179688 3.203125 -13.171875 C 2.953125 -13.148438 2.769531 -13.070312 2.65625 -12.9375 C 2.550781 -12.800781 2.503906 -12.617188 2.515625 -12.390625 C 2.554688 -11.878906 2.882812 -11.367188 3.5 -10.859375 L 5.453125 -9.25 C 5.898438 -8.863281 6.273438 -8.492188 6.578125 -8.140625 C 6.890625 -7.785156 7.144531 -7.359375 7.34375 -6.859375 C 7.550781 -6.367188 7.679688 -5.78125 7.734375 -5.09375 C 7.835938 -3.5625 7.632812 -2.378906 7.125 -1.546875 C 6.613281 -0.710938 5.707031 -0.25 4.40625 -0.15625 Z M 4.40625 -0.15625 "/></g></g></g><g fill="#10193d" fill-opacity="1"><g transform="translate(74.807275, 18.106581)"><g><path d="M 4.3125 0.4375 C 3.175781 0.351562 2.289062 -0.0664062 1.65625 -0.828125 C 1.019531 -1.585938 0.742188 -2.59375 0.828125 -3.84375 L 1.296875 -11.046875 C 1.398438 -12.597656 1.785156 -13.75 2.453125 -14.5 C 3.128906 -15.25 4.125 -15.578125 5.4375 -15.484375 C 6.59375 -15.410156 7.503906 -15.03125 8.171875 -14.34375 C 8.835938 -13.664062 9.132812 -12.734375 9.0625 -11.546875 L 8.875 -8.859375 L 5.75 -9.0625 L 5.90625 -11.375 C 5.9375 -11.820312 5.898438 -12.128906 5.796875 -12.296875 C 5.703125 -12.472656 5.519531 -12.570312 5.25 -12.59375 C 4.976562 -12.613281 4.785156 -12.53125 4.671875 -12.34375 C 4.554688 -12.15625 4.484375 -11.875 4.453125 -11.5 L 3.9375 -3.65625 C 3.90625 -3.25 3.941406 -2.945312 4.046875 -2.75 C 4.160156 -2.5625 4.335938 -2.457031 4.578125 -2.4375 C 5.066406 -2.40625 5.335938 -2.78125 5.390625 -3.5625 L 5.578125 -6.390625 L 8.734375 -6.1875 L 8.53125 -3.234375 C 8.351562 -0.617188 6.945312 0.601562 4.3125 0.4375 Z M 4.3125 0.4375 "/></g></g></g><g fill="#10193d" fill-opacity="1"><g transform="translate(82.584052, 18.564107)"><g><path d="M 3.84375 -15.1875 L 8.5625 -14.21875 C 9.3125 -14.0625 9.851562 -13.769531 10.1875 -13.34375 C 10.53125 -12.914062 10.710938 -12.382812 10.734375 -11.75 C 10.753906 -11.113281 10.664062 -10.316406 10.46875 -9.359375 C 10.28125 -8.492188 10.023438 -7.835938 9.703125 -7.390625 C 9.378906 -6.953125 8.914062 -6.695312 8.3125 -6.625 C 8.757812 -6.414062 9.050781 -6.109375 9.1875 -5.703125 C 9.320312 -5.296875 9.320312 -4.773438 9.1875 -4.140625 L 7.9375 1.640625 L 4.9375 1.03125 L 6.1875 -4.96875 C 6.269531 -5.394531 6.242188 -5.679688 6.109375 -5.828125 C 5.972656 -5.984375 5.679688 -6.109375 5.234375 -6.203125 L 3.78125 0.78125 L 0.671875 0.140625 Z M 6.53125 -8.71875 C 6.957031 -8.625 7.269531 -9.039062 7.46875 -9.96875 C 7.550781 -10.375 7.59375 -10.679688 7.59375 -10.890625 C 7.601562 -11.109375 7.566406 -11.265625 7.484375 -11.359375 C 7.410156 -11.453125 7.285156 -11.519531 7.109375 -11.5625 L 6.40625 -11.703125 L 5.8125 -8.859375 Z M 6.53125 -8.71875 "/></g></g></g><g fill="#10193d" fill-opacity="1"><g transform="translate(90.268982, 20.089708)"><g><path d="M 4.125 1.625 C 2.9375 1.195312 2.160156 0.507812 1.796875 -0.4375 C 1.441406 -1.382812 1.5 -2.515625 1.96875 -3.828125 L 4.484375 -10.84375 C 4.941406 -12.113281 5.59375 -12.960938 6.4375 -13.390625 C 7.289062 -13.816406 8.3125 -13.816406 9.5 -13.390625 C 10.6875 -12.960938 11.472656 -12.3125 11.859375 -11.4375 C 12.253906 -10.570312 12.222656 -9.503906 11.765625 -8.234375 L 9.25 -1.21875 C 8.78125 0.101562 8.101562 1.015625 7.21875 1.515625 C 6.34375 2.015625 5.3125 2.050781 4.125 1.625 Z M 5.09375 -1.078125 C 5.351562 -0.984375 5.570312 -1.035156 5.75 -1.234375 C 5.925781 -1.429688 6.085938 -1.738281 6.234375 -2.15625 L 8.8125 -9.359375 C 8.925781 -9.679688 8.976562 -9.957031 8.96875 -10.1875 C 8.957031 -10.414062 8.816406 -10.578125 8.546875 -10.671875 C 8.054688 -10.847656 7.679688 -10.566406 7.421875 -9.828125 L 4.84375 -2.640625 C 4.6875 -2.203125 4.617188 -1.859375 4.640625 -1.609375 C 4.671875 -1.359375 4.820312 -1.179688 5.09375 -1.078125 Z M 5.09375 -1.078125 "/></g></g></g><g fill="#10193d" fill-opacity="1"><g transform="translate(97.860219, 22.811404)"><g><path d="M 0.609375 0.3125 L 7.734375 -13.625 L 10.53125 -12.203125 L 4.609375 -0.625 L 7.5 0.859375 L 6.296875 3.21875 Z M 0.609375 0.3125 "/></g></g></g><g fill="#10193d" fill-opacity="1"><g transform="translate(103.688359, 25.740108)"><g><path d="M 0.578125 0.375 L 9.25 -12.65625 L 11.859375 -10.90625 L 4.65625 -0.09375 L 7.34375 1.6875 L 5.875 3.90625 Z M 0.578125 0.375 "/></g></g></g><g fill="#10193d" fill-opacity="1"><g transform="translate(109.214098, 29.463585)"><g/></g></g><g fill="#10193d" fill-opacity="1"><g transform="translate(112.213473, 31.862714)"><g/></g></g><g fill="#10193d" fill-opacity="1"><g transform="translate(115.043353, 34.459603)"><g/></g></g><g fill="#10193d" fill-opacity="1"><g transform="translate(117.642746, 37.016003)"><g><path d="M 2.578125 3.5625 C 1.710938 2.445312 1.363281 1.425781 1.53125 0.5 C 1.707031 -0.425781 2.421875 -1.367188 3.671875 -2.328125 L 4.875 -3.265625 L 6.75 -0.828125 L 5.203125 0.375 C 4.585938 0.84375 4.4375 1.273438 4.75 1.671875 C 4.914062 1.890625 5.09375 1.988281 5.28125 1.96875 C 5.476562 1.957031 5.726562 1.832031 6.03125 1.59375 C 6.4375 1.28125 6.734375 0.972656 6.921875 0.671875 C 7.117188 0.378906 7.25 0.09375 7.3125 -0.1875 C 7.375 -0.476562 7.445312 -0.960938 7.53125 -1.640625 L 7.78125 -3.515625 C 7.945312 -4.960938 8.523438 -6.066406 9.515625 -6.828125 C 10.578125 -7.640625 11.570312 -8.015625 12.5 -7.953125 C 13.425781 -7.898438 14.25 -7.40625 14.96875 -6.46875 C 15.820312 -5.351562 16.140625 -4.320312 15.921875 -3.375 C 15.710938 -2.425781 14.976562 -1.46875 13.71875 -0.5 L 11.78125 -3.03125 L 12.609375 -3.6875 C 12.773438 -3.8125 12.867188 -3.957031 12.890625 -4.125 C 12.910156 -4.300781 12.859375 -4.46875 12.734375 -4.625 C 12.585938 -4.820312 12.425781 -4.925781 12.25 -4.9375 C 12.082031 -4.957031 11.90625 -4.898438 11.71875 -4.765625 C 11.3125 -4.453125 11.066406 -3.890625 10.984375 -3.078125 L 10.71875 -0.578125 C 10.644531 0.00390625 10.546875 0.519531 10.421875 0.96875 C 10.304688 1.425781 10.097656 1.875 9.796875 2.3125 C 9.503906 2.757812 9.082031 3.191406 8.53125 3.609375 C 7.3125 4.546875 6.210938 5.03125 5.234375 5.0625 C 4.253906 5.101562 3.367188 4.601562 2.578125 3.5625 Z M 2.578125 3.5625 "/></g></g></g><g fill="#10193d" fill-opacity="1"><g transform="translate(122.30903, 42.974146)"><g><path d="M 2.03125 3.828125 C 1.46875 2.835938 1.320312 1.863281 1.59375 0.90625 C 1.875 -0.0390625 2.5625 -0.828125 3.65625 -1.453125 L 9.921875 -5.046875 C 11.265625 -5.816406 12.429688 -6.128906 13.421875 -5.984375 C 14.421875 -5.835938 15.25 -5.1875 15.90625 -4.03125 C 16.476562 -3.03125 16.664062 -2.066406 16.46875 -1.140625 C 16.269531 -0.210938 15.65625 0.546875 14.625 1.140625 L 12.28125 2.484375 L 10.734375 -0.234375 L 12.75 -1.390625 C 13.144531 -1.609375 13.382812 -1.804688 13.46875 -1.984375 C 13.5625 -2.160156 13.539062 -2.363281 13.40625 -2.59375 C 13.269531 -2.832031 13.085938 -2.945312 12.859375 -2.9375 C 12.640625 -2.9375 12.367188 -2.84375 12.046875 -2.65625 L 5.234375 1.25 C 4.867188 1.457031 4.632812 1.660156 4.53125 1.859375 C 4.4375 2.054688 4.445312 2.257812 4.5625 2.46875 C 4.8125 2.882812 5.28125 2.894531 5.96875 2.5 L 8.421875 1.09375 L 9.984375 3.84375 L 7.421875 5.3125 C 5.140625 6.613281 3.34375 6.117188 2.03125 3.828125 Z M 2.03125 3.828125 "/></g></g></g><g fill="#10193d" fill-opacity="1"><g transform="translate(126.236714, 49.700651)"><g><path d="M 14.78125 -5.203125 L 16.578125 -0.734375 C 16.867188 -0.0234375 16.929688 0.582031 16.765625 1.09375 C 16.597656 1.613281 16.25 2.054688 15.71875 2.421875 C 15.195312 2.785156 14.484375 3.148438 13.578125 3.515625 C 12.753906 3.847656 12.066406 4.003906 11.515625 3.984375 C 10.972656 3.960938 10.503906 3.722656 10.109375 3.265625 C 10.203125 3.734375 10.113281 4.132812 9.84375 4.46875 C 9.570312 4.8125 9.140625 5.109375 8.546875 5.359375 L 3.03125 7.515625 L 1.890625 4.6875 L 7.578125 2.40625 C 7.984375 2.238281 8.207031 2.050781 8.25 1.84375 C 8.300781 1.644531 8.238281 1.332031 8.0625 0.90625 L 1.4375 3.578125 L 0.25 0.640625 Z M 10.859375 0.609375 C 11.023438 1.015625 11.550781 1.039062 12.4375 0.6875 C 12.820312 0.539062 13.101562 0.410156 13.28125 0.296875 C 13.46875 0.179688 13.578125 0.0664062 13.609375 -0.046875 C 13.648438 -0.171875 13.632812 -0.316406 13.5625 -0.484375 L 13.296875 -1.15625 L 10.59375 -0.078125 Z M 10.859375 0.609375 "/></g></g></g><g fill="#10193d" fill-opacity="1"><g transform="translate(129.223389, 56.943949)"><g><path d="M 0.921875 4.34375 C 0.617188 3.101562 0.765625 2.070312 1.359375 1.25 C 1.953125 0.4375 2.925781 -0.140625 4.28125 -0.484375 L 11.515625 -2.265625 C 12.828125 -2.597656 13.894531 -2.53125 14.71875 -2.0625 C 15.539062 -1.59375 16.101562 -0.738281 16.40625 0.5 C 16.707031 1.71875 16.601562 2.726562 16.09375 3.53125 C 15.59375 4.332031 14.6875 4.898438 13.375 5.234375 L 6.140625 7.015625 C 4.773438 7.359375 3.640625 7.300781 2.734375 6.84375 C 1.828125 6.394531 1.222656 5.5625 0.921875 4.34375 Z M 3.71875 3.65625 C 3.789062 3.914062 3.953125 4.0625 4.203125 4.09375 C 4.460938 4.132812 4.804688 4.097656 5.234375 3.984375 L 12.671875 2.15625 C 13.003906 2.070312 13.257812 1.960938 13.4375 1.828125 C 13.625 1.691406 13.6875 1.488281 13.625 1.21875 C 13.5 0.707031 13.054688 0.546875 12.296875 0.734375 L 4.875 2.578125 C 4.4375 2.679688 4.117188 2.8125 3.921875 2.96875 C 3.722656 3.132812 3.65625 3.363281 3.71875 3.65625 Z M 3.71875 3.65625 "/></g></g></g><g fill="#10193d" fill-opacity="1"><g transform="translate(131.16101, 64.77431)"><g><path d="M 0.078125 0.6875 L 15.625 -1.109375 L 15.984375 2 L 3.078125 3.484375 L 3.453125 6.703125 L 0.8125 7.015625 Z M 0.078125 0.6875 "/></g></g></g><g fill="#10193d" fill-opacity="1"><g transform="translate(131.95101, 71.248904)"><g><path d="M 0 0.6875 L 15.65625 0.6875 L 15.65625 3.828125 L 2.65625 3.828125 L 2.65625 7.0625 L 0 7.0625 Z M 0 0.6875 "/></g></g></g><g fill="#10193d" fill-opacity="1"><g transform="translate(131.913437, 77.90891)"><g/></g></g><g fill="#10193d" fill-opacity="1"><g transform="translate(131.577427, 81.735036)"><g/></g></g><g fill="#10193d" fill-opacity="1"><g transform="translate(130.982875, 85.529569)"><g/></g></g><g fill="#10193d" fill-opacity="1"><g transform="translate(130.132545, 89.2751)"><g/></g></g><g fill="#10193d" fill-opacity="1"><g transform="translate(129.202349, 92.801501)"><g><path d="M -1.828125 4.015625 C -1.273438 2.710938 -0.554688 1.90625 0.328125 1.59375 C 1.210938 1.28125 2.382812 1.425781 3.84375 2.03125 L 5.25 2.625 L 4.0625 5.46875 L 2.265625 4.703125 C 1.535156 4.398438 1.078125 4.476562 0.890625 4.9375 C 0.785156 5.1875 0.789062 5.394531 0.90625 5.5625 C 1.019531 5.738281 1.253906 5.898438 1.609375 6.046875 C 2.078125 6.242188 2.488281 6.347656 2.84375 6.359375 C 3.195312 6.378906 3.515625 6.34375 3.796875 6.25 C 4.078125 6.164062 4.535156 5.992188 5.171875 5.734375 L 6.921875 5 C 8.253906 4.4375 9.492188 4.394531 10.640625 4.875 C 11.878906 5.382812 12.703125 6.054688 13.109375 6.890625 C 13.523438 7.722656 13.503906 8.6875 13.046875 9.78125 C 12.503906 11.082031 11.765625 11.875 10.828125 12.15625 C 9.898438 12.445312 8.703125 12.285156 7.234375 11.671875 L 8.46875 8.71875 L 9.453125 9.109375 C 9.648438 9.191406 9.828125 9.203125 9.984375 9.140625 C 10.140625 9.078125 10.257812 8.957031 10.34375 8.78125 C 10.4375 8.550781 10.445312 8.351562 10.375 8.1875 C 10.300781 8.019531 10.160156 7.894531 9.953125 7.8125 C 9.484375 7.613281 8.878906 7.675781 8.140625 8 L 5.8125 9.015625 C 5.269531 9.242188 4.773438 9.414062 4.328125 9.53125 C 3.878906 9.644531 3.382812 9.679688 2.84375 9.640625 C 2.3125 9.609375 1.726562 9.460938 1.09375 9.203125 C -0.320312 8.597656 -1.285156 7.882812 -1.796875 7.0625 C -2.316406 6.238281 -2.328125 5.222656 -1.828125 4.015625 Z M -1.828125 4.015625 "/></g></g></g><g fill="#10193d" fill-opacity="1"><g transform="translate(126.344377, 99.81048)"><g><path d="M -2.328125 3.671875 C -1.742188 2.679688 -0.96875 2.070312 0 1.84375 C 0.957031 1.613281 1.984375 1.816406 3.078125 2.453125 L 9.296875 6.109375 C 10.640625 6.898438 11.492188 7.765625 11.859375 8.703125 C 12.222656 9.640625 12.070312 10.675781 11.40625 11.8125 C 10.820312 12.8125 10.070312 13.453125 9.15625 13.734375 C 8.25 14.023438 7.285156 13.867188 6.265625 13.265625 L 3.9375 11.890625 L 5.515625 9.203125 L 7.515625 10.390625 C 7.898438 10.617188 8.191406 10.726562 8.390625 10.71875 C 8.597656 10.707031 8.769531 10.582031 8.90625 10.34375 C 9.039062 10.113281 9.050781 9.898438 8.9375 9.703125 C 8.820312 9.515625 8.601562 9.328125 8.28125 9.140625 L 1.5 5.15625 C 1.144531 4.945312 0.859375 4.847656 0.640625 4.859375 C 0.421875 4.867188 0.25 4.976562 0.125 5.1875 C -0.125 5.613281 0.0859375 6.023438 0.765625 6.421875 L 3.203125 7.859375 L 1.609375 10.578125 L -0.921875 9.078125 C -3.191406 7.742188 -3.660156 5.941406 -2.328125 3.671875 Z M -2.328125 3.671875 "/></g></g></g><g fill="#10193d" fill-opacity="1"><g transform="translate(122.454469, 106.556641)"><g><path d="M 11.859375 10.25 L 8.875 14.015625 C 8.394531 14.617188 7.890625 14.976562 7.359375 15.09375 C 6.828125 15.207031 6.269531 15.128906 5.6875 14.859375 C 5.113281 14.585938 4.441406 14.148438 3.671875 13.546875 C 2.984375 12.992188 2.507812 12.472656 2.25 11.984375 C 2 11.492188 1.976562 10.960938 2.1875 10.390625 C 1.8125 10.703125 1.410156 10.820312 0.984375 10.75 C 0.554688 10.6875 0.0859375 10.457031 -0.421875 10.0625 L -5.03125 6.359375 L -3.125 3.953125 L 1.6875 7.75 C 2.019531 8.019531 2.285156 8.125 2.484375 8.0625 C 2.679688 8.007812 2.921875 7.804688 3.203125 7.453125 L -2.390625 3.03125 L -0.421875 0.546875 Z M 4.859375 9.734375 C 4.585938 10.078125 4.820312 10.546875 5.5625 11.140625 C 5.894531 11.398438 6.15625 11.578125 6.34375 11.671875 C 6.53125 11.773438 6.679688 11.816406 6.796875 11.796875 C 6.921875 11.773438 7.039062 11.6875 7.15625 11.53125 L 7.609375 10.96875 L 5.328125 9.15625 Z M 4.859375 9.734375 "/></g></g></g><g fill="#10193d" fill-opacity="1"><g transform="translate(117.647935, 112.744006)"><g><path d="M -3.296875 2.953125 C -2.378906 2.078125 -1.414062 1.691406 -0.40625 1.796875 C 0.59375 1.910156 1.578125 2.46875 2.546875 3.46875 L 7.6875 8.859375 C 8.625 9.835938 9.09375 10.800781 9.09375 11.75 C 9.09375 12.707031 8.632812 13.625 7.71875 14.5 C 6.800781 15.375 5.867188 15.785156 4.921875 15.734375 C 3.972656 15.691406 3.03125 15.179688 2.09375 14.203125 L -3.046875 8.8125 C -4.023438 7.800781 -4.539062 6.789062 -4.59375 5.78125 C -4.644531 4.769531 -4.210938 3.828125 -3.296875 2.953125 Z M -1.3125 5.046875 C -1.507812 5.234375 -1.5625 5.445312 -1.46875 5.6875 C -1.375 5.9375 -1.175781 6.21875 -0.875 6.53125 L 4.421875 12.0625 C 4.648438 12.3125 4.867188 12.476562 5.078125 12.5625 C 5.285156 12.65625 5.492188 12.609375 5.703125 12.421875 C 6.078125 12.054688 5.992188 11.59375 5.453125 11.03125 L 0.1875 5.5 C -0.132812 5.164062 -0.410156 4.957031 -0.640625 4.875 C -0.878906 4.789062 -1.101562 4.847656 -1.3125 5.046875 Z M -1.3125 5.046875 "/></g></g></g><g fill="#10193d" fill-opacity="1"><g transform="translate(111.809643, 118.31448)"><g><path d="M -0.546875 0.40625 L 8.734375 13.015625 L 6.203125 14.875 L -1.5 4.40625 L -4.109375 6.328125 L -5.6875 4.1875 Z M -0.546875 0.40625 "/></g></g></g><g fill="#10193d" fill-opacity="1"><g transform="translate(106.580462, 122.213203)"><g><path d="M -0.59375 0.34375 L 7.171875 13.9375 L 4.4375 15.5 L -2.015625 4.21875 L -4.8125 5.8125 L -6.125 3.5 Z M -0.59375 0.34375 "/></g></g></g><g fill="#10193d" fill-opacity="1"><g transform="translate(100.781492, 125.482271)"><g/></g></g><g fill="#10193d" fill-opacity="1"><g transform="translate(97.292941, 127.089136)"><g/></g></g><g fill="#10193d" fill-opacity="1"><g transform="translate(93.70351, 128.455924)"><g/></g></g><g fill="#10193d" fill-opacity="1"><g transform="translate(90.029712, 129.576289)"><g/></g></g><g fill="#10193d" fill-opacity="1"><g transform="translate(86.288422, 130.445084)"><g/></g></g><g fill="#10193d" fill-opacity="1"><g transform="translate(82.496857, 131.058363)"><g/></g></g><g fill="#10193d" fill-opacity="1"><g transform="translate(78.672454, 131.413237)"><g/></g></g><g fill="#10193d" fill-opacity="1"><g transform="translate(74.832791, 131.508141)"><g/></g></g><g fill="#10193d" fill-opacity="1"><g transform="translate(70.995519, 131.342594)"><g/></g></g><g clip-path="url(#3055f158dc)"><g clip-path="url(#34a50c4e4a)"><path fill="#10193d" d="M 54.824219 9.011719 L 59.359375 9.011719 L 59.359375 13.546875 L 54.824219 13.546875 Z M 54.824219 9.011719 " fill-opacity="1" fill-rule="nonzero"/></g></g><g clip-path="url(#1b311a1d61)"><g clip-path="url(#88327d5c1e)"><path fill="#10193d" d="M 7.988281 57.011719 L 12.523438 57.011719 L 12.523438 61.546875 L 7.988281 61.546875 Z M 7.988281 57.011719 " fill-opacity="1" fill-rule="nonzero"/></g></g><g clip-path="url(#d998a185cb)"><g clip-path="url(#6a0223e918)"><path fill="#10193d" d="M 117.09375 24.175781 L 121.628906 24.175781 L 121.628906 28.710938 L 117.09375 28.710938 Z M 117.09375 24.175781 " fill-opacity="1" fill-rule="nonzero"/></g></g><g clip-path="url(#0ba31c6d42)"><g clip-path="url(#3b81cdabe4)"><path fill="#10193d" d="M 27.800781 120.359375 L 32.335938 120.359375 L 32.335938 124.894531 L 27.800781 124.894531 Z M 27.800781 120.359375 " fill-opacity="1" fill-rule="nonzero"/></g></g><g clip-path="url(#1863dcc9f7)"><g clip-path="url(#8584b3ead9)"><path fill="#10193d" d="M 93.09375 135 L 97.628906 135 L 97.628906 139.535156 L 93.09375 139.535156 Z M 93.09375 135 " fill-opacity="1" fill-rule="nonzero"/></g></g><g clip-path="url(#5474b96827)"><g clip-path="url(#1dd25fd681)"><path fill="#10193d" d="M 137.847656 84.359375 L 142.382812 84.359375 L 142.382812 88.894531 L 137.847656 88.894531 Z M 137.847656 84.359375 " fill-opacity="1" fill-rule="nonzero"/></g></g></svg>