<svg xmlns="http://www.w3.org/2000/svg" xmlns:xlink="http://www.w3.org/1999/xlink" width="40" zoomAndPan="magnify" viewBox="0 0 30 30.000001" height="40" preserveAspectRatio="xMidYMid meet" version="1.0"><defs><clipPath id="e654cc0991"><path d="M 0.484375 0 L 29.515625 0 L 29.515625 29.03125 L 0.484375 29.03125 Z M 0.484375 0 " clip-rule="nonzero"/></clipPath><clipPath id="23256c3350"><path d="M 11 25 L 19 25 L 19 29.03125 L 11 29.03125 Z M 11 25 " clip-rule="nonzero"/></clipPath><clipPath id="1661ee0ce7"><path d="M 6.011719 25.160156 L 26.492188 25.160156 L 26.492188 29.03125 L 6.011719 29.03125 Z M 6.011719 25.160156 " clip-rule="nonzero"/></clipPath><clipPath id="46e0099ae0"><path d="M 22.691406 26.640625 L 28.363281 26.640625 L 28.363281 29.03125 L 22.691406 29.03125 Z M 22.691406 26.640625 " clip-rule="nonzero"/></clipPath><clipPath id="611fc7f44b"><path d="M 1.507812 26.640625 L 7.171875 26.640625 L 7.171875 29.03125 L 1.507812 29.03125 Z M 1.507812 26.640625 " clip-rule="nonzero"/></clipPath><clipPath id="dfa99e1f79"><path d="M 1.507812 26 L 28 26 L 28 29.03125 L 1.507812 29.03125 Z M 1.507812 26 " clip-rule="nonzero"/></clipPath></defs><g clip-path="url(#e654cc0991)"><path fill="#ffffff" d="M 0.484375 0 L 29.515625 0 L 29.515625 36.289062 L 0.484375 36.289062 Z M 0.484375 0 " fill-opacity="1" fill-rule="nonzero"/><path fill="#ffffff" d="M 0.484375 0 L 29.515625 0 L 29.515625 29.03125 L 0.484375 29.03125 Z M 0.484375 0 " fill-opacity="1" fill-rule="nonzero"/><path fill="#1e90ff" d="M 0.484375 0 L 29.515625 0 L 29.515625 29.03125 L 0.484375 29.03125 Z M 0.484375 0 " fill-opacity="1" fill-rule="nonzero"/></g><g clip-path="url(#23256c3350)"><path fill="#ffffff" d="M 14.941406 32.765625 C 12.941406 32.765625 11.3125 29.335938 11.261719 27.289062 L 12.410156 27.289062 L 12.410156 25.40625 C 13.273438 25.660156 14.179688 25.796875 15.105469 25.796875 C 16.03125 25.796875 16.933594 25.660156 17.796875 25.40625 L 17.796875 27.289062 L 18.617188 27.289062 C 18.566406 29.335938 16.941406 32.765625 14.941406 32.765625 " fill-opacity="1" fill-rule="nonzero"/></g><g clip-path="url(#1661ee0ce7)"><path fill="#1e90ff" d="M 23.152344 37.015625 L 6.730469 37.015625 L 6.796875 36.722656 L 23.085938 36.722656 L 23.152344 37.015625 M 26.46875 28.996094 L 26.390625 28.660156 C 26.125 27.511719 25.113281 26.707031 23.933594 26.707031 C 23.742188 26.707031 23.550781 26.730469 23.363281 26.773438 C 23.152344 26.824219 22.953125 26.898438 22.765625 26.996094 L 18.609375 26.996094 C 18.613281 27.058594 18.621094 27.125 18.621094 27.191406 C 18.621094 27.222656 18.617188 27.257812 18.617188 27.289062 L 17.796875 27.289062 L 17.796875 25.40625 C 17.996094 25.347656 18.191406 25.28125 18.386719 25.210938 L 18.386719 26.699219 L 23.976562 26.699219 C 25.285156 26.699219 26.363281 27.714844 26.46875 28.996094 M 12.410156 27.289062 L 11.261719 27.289062 C 11.261719 27.257812 11.261719 27.222656 11.261719 27.191406 C 11.261719 27.125 11.269531 27.058594 11.273438 26.996094 L 7.117188 26.996094 C 6.929688 26.898438 6.730469 26.824219 6.519531 26.773438 C 6.355469 26.734375 6.1875 26.714844 6.019531 26.710938 C 6.089844 26.703125 6.160156 26.699219 6.234375 26.699219 L 11.820312 26.699219 L 11.820312 25.210938 C 12.015625 25.28125 12.210938 25.347656 12.410156 25.40625 L 12.410156 27.289062 " fill-opacity="1" fill-rule="nonzero"/></g><path fill="#ffffff" d="M 15.105469 25.207031 C 10.824219 25.207031 7.039062 22.113281 5.90625 17.683594 L 5.84375 17.441406 L 5.59375 17.460938 C 5.53125 17.46875 5.46875 17.472656 5.40625 17.472656 C 4.3125 17.472656 3.421875 16.582031 3.421875 15.484375 C 3.421875 14.695312 3.886719 14.015625 4.550781 13.695312 C 4.679688 15.648438 5.839844 17.398438 5.839844 17.398438 C 6.597656 17.117188 6.757812 13.0625 6.757812 13.0625 C 7.371094 14.214844 10.246094 14.390625 10.246094 14.390625 C 9.105469 13.371094 9.929688 9.058594 10.296875 9.058594 C 10.332031 9.058594 10.363281 9.097656 10.390625 9.191406 C 10.648438 10.132812 14.253906 12.410156 14.535156 12.410156 C 14.558594 12.410156 14.558594 12.394531 14.535156 12.363281 C 12.875 10.191406 14.535156 7.054688 14.535156 7.054688 C 15.152344 10.40625 20.160156 13.621094 23.410156 13.761719 C 24.410156 13.804688 23.410156 18.375 23.410156 18.375 C 23.410156 18.375 24.882812 16.429688 25.449219 13.566406 C 26.292969 13.792969 26.921875 14.566406 26.921875 15.484375 C 26.921875 16.582031 26.03125 17.472656 24.9375 17.472656 C 24.847656 17.472656 24.746094 17.464844 24.636719 17.445312 L 24.371094 17.40625 L 24.308594 17.664062 C 23.179688 22.105469 19.394531 25.207031 15.105469 25.207031 " fill-opacity="1" fill-rule="nonzero"/><path fill="#1e90ff" d="M 15.105469 25.796875 C 14.179688 25.796875 13.273438 25.660156 12.410156 25.40625 C 12.210938 25.347656 12.015625 25.28125 11.820312 25.210938 C 8.789062 24.09375 6.347656 21.464844 5.398438 18.0625 C 3.984375 18.058594 2.832031 16.902344 2.832031 15.484375 C 2.832031 14.367188 3.550781 13.410156 4.550781 13.058594 C 4.539062 13.269531 4.539062 13.484375 4.550781 13.695312 C 3.886719 14.015625 3.421875 14.695312 3.421875 15.484375 C 3.421875 16.582031 4.3125 17.472656 5.40625 17.472656 C 5.46875 17.472656 5.53125 17.46875 5.59375 17.460938 L 5.84375 17.441406 L 5.90625 17.683594 C 7.039062 22.113281 10.824219 25.207031 15.105469 25.207031 C 19.394531 25.207031 23.179688 22.105469 24.308594 17.664062 L 24.371094 17.40625 L 24.636719 17.445312 C 24.746094 17.464844 24.847656 17.472656 24.9375 17.472656 C 26.03125 17.472656 26.921875 16.582031 26.921875 15.484375 C 26.921875 14.566406 26.292969 13.792969 25.449219 13.566406 C 25.484375 13.378906 25.519531 13.183594 25.546875 12.984375 C 26.671875 13.261719 27.507812 14.277344 27.507812 15.484375 C 27.507812 16.90625 26.355469 18.0625 24.9375 18.0625 C 24.894531 18.0625 24.855469 18.058594 24.8125 18.058594 C 23.863281 21.464844 21.421875 24.09375 18.386719 25.210938 C 18.191406 25.28125 17.996094 25.347656 17.796875 25.40625 C 16.933594 25.660156 16.03125 25.796875 15.105469 25.796875 " fill-opacity="1" fill-rule="nonzero"/><g clip-path="url(#46e0099ae0)"><path fill="#1e90ff" d="M 28.335938 37.015625 L 23.152344 37.015625 L 23.085938 36.722656 L 27.964844 36.722656 L 26.175781 29.03125 C 26.085938 27.890625 25.136719 26.996094 23.976562 26.996094 L 22.765625 26.996094 C 22.953125 26.898438 23.152344 26.824219 23.363281 26.773438 C 23.550781 26.730469 23.742188 26.707031 23.933594 26.707031 C 25.113281 26.707031 26.125 27.511719 26.390625 28.660156 L 26.46875 28.996094 L 28.335938 37.015625 " fill-opacity="1" fill-rule="nonzero"/></g><g clip-path="url(#611fc7f44b)"><path fill="#1e90ff" d="M 6.730469 37.015625 L 1.546875 37.015625 L 3.492188 28.660156 C 3.757812 27.511719 4.769531 26.707031 5.945312 26.707031 C 5.96875 26.707031 5.992188 26.707031 6.019531 26.710938 C 6.1875 26.714844 6.355469 26.734375 6.519531 26.773438 C 6.730469 26.824219 6.929688 26.898438 7.117188 26.996094 L 6.234375 26.996094 C 6.164062 26.996094 6.097656 27 6.027344 27.003906 C 6 27.003906 5.972656 27.003906 5.945312 27.003906 C 4.933594 27.003906 4.015625 27.699219 3.777344 28.726562 L 1.917969 36.722656 L 6.496094 36.722656 L 6.640625 36.097656 L 6.707031 36.722656 L 6.796875 36.722656 L 6.730469 37.015625 " fill-opacity="1" fill-rule="nonzero"/></g><path fill="#1e90ff" d="M 23.410156 18.375 C 23.410156 18.375 24.410156 13.804688 23.410156 13.761719 C 20.160156 13.621094 15.152344 10.40625 14.535156 7.054688 C 14.535156 7.054688 12.875 10.191406 14.535156 12.363281 C 14.558594 12.394531 14.558594 12.410156 14.535156 12.410156 C 14.253906 12.410156 10.648438 10.132812 10.390625 9.191406 C 10.363281 9.097656 10.332031 9.058594 10.296875 9.058594 C 9.929688 9.058594 9.105469 13.371094 10.246094 14.390625 C 10.246094 14.390625 7.371094 14.214844 6.757812 13.0625 C 6.757812 13.0625 6.597656 17.117188 5.839844 17.398438 C 5.839844 17.398438 4.679688 15.648438 4.550781 13.695312 C 4.539062 13.484375 4.539062 13.269531 4.550781 13.058594 C 4.566406 12.78125 4.609375 12.5 4.683594 12.226562 C 4.90625 11.394531 5.148438 5.238281 11.257812 3.140625 C 11.257812 3.140625 12.855469 2.496094 13.585938 1.324219 C 13.609375 1.289062 13.636719 1.273438 13.667969 1.273438 C 13.910156 1.273438 14.394531 2.171875 14.535156 2.582031 C 14.542969 2.597656 14.550781 2.605469 14.5625 2.605469 C 14.671875 2.605469 15.03125 1.953125 15.402344 1.304688 C 15.773438 0.652344 16.15625 0 16.316406 0 C 16.367188 0 16.394531 0.0625 16.394531 0.207031 C 16.394531 1.527344 16.394531 2.871094 16.878906 2.871094 C 16.902344 2.871094 16.925781 2.867188 16.953125 2.859375 C 16.953125 2.859375 17.058594 2.851562 17.25 2.851562 C 18.515625 2.851562 23.484375 3.171875 25.121094 8.03125 C 25.71875 9.808594 25.765625 11.503906 25.546875 12.984375 C 25.519531 13.183594 25.484375 13.378906 25.449219 13.566406 C 24.882812 16.429688 23.410156 18.375 23.410156 18.375 " fill-opacity="1" fill-rule="nonzero"/><g clip-path="url(#dfa99e1f79)"><path fill="#1e90ff" d="M 27.964844 36.722656 L 6.707031 36.722656 L 6.640625 36.097656 L 6.496094 36.722656 L 1.917969 36.722656 L 3.777344 28.726562 C 4.015625 27.699219 4.933594 27.003906 5.945312 27.003906 C 5.972656 27.003906 6 27.003906 6.027344 27.003906 C 6.097656 27 6.164062 26.996094 6.234375 26.996094 L 11.273438 26.996094 C 11.269531 27.058594 11.261719 27.125 11.261719 27.191406 C 11.261719 27.222656 11.261719 27.257812 11.261719 27.289062 C 11.3125 29.335938 12.941406 32.765625 14.941406 32.765625 C 16.941406 32.765625 18.566406 29.335938 18.617188 27.289062 C 18.617188 27.257812 18.621094 27.222656 18.621094 27.191406 C 18.621094 27.125 18.613281 27.058594 18.609375 26.996094 L 23.976562 26.996094 C 25.136719 26.996094 26.085938 27.890625 26.175781 29.03125 L 27.964844 36.722656 " fill-opacity="1" fill-rule="nonzero"/></g></svg>