<?xml version="1.0" encoding="UTF-8"?>
<svg version="1.1" xmlns="http://www.w3.org/2000/svg" width="396" height="171">
<path d="M0 0 C0.85086685 -0.00511093 1.7017337 -0.01022186 2.5783844 -0.01548767 C5.38964888 -0.0293821 8.20066817 -0.02842704 11.01196289 -0.02612305 C12.96725048 -0.03001 14.92253723 -0.03434467 16.87782288 -0.03910828 C20.9758681 -0.04657013 25.07382716 -0.04627941 29.171875 -0.04101562 C34.42218208 -0.03522047 39.67213645 -0.05215332 44.92238522 -0.0753603 C48.96043457 -0.0900953 52.99839894 -0.09096966 57.03647041 -0.08785057 C58.97215028 -0.08836388 60.90783489 -0.09360344 62.84348869 -0.10366249 C65.55083993 -0.11600525 68.25750344 -0.10924829 70.96484375 -0.09765625 C71.76344818 -0.10529999 72.56205261 -0.11294373 73.38485718 -0.12081909 C77.90534325 -0.07805919 81.04152902 0.30099096 84.54711914 3.2746582 C85.10961914 6.7746582 85.10961914 6.7746582 84.54711914 10.2746582 C82.78395794 12.30380853 81.35588887 13.16455028 78.67785645 13.52914429 C76.32080375 13.62287484 73.98375991 13.61149709 71.62524414 13.56762695 C70.76525818 13.56338211 69.90527222 13.55913727 69.01922607 13.55476379 C66.27820244 13.53799936 63.53791975 13.50035166 60.79711914 13.4621582 C58.93645269 13.44710846 57.07577469 13.43342056 55.21508789 13.42114258 C50.65881374 13.38810319 46.10309198 13.33633654 41.54711914 13.2746582 C41.55964722 13.82698624 41.57217529 14.37931427 41.58508301 14.94837952 C41.93034906 30.27073477 42.2317052 45.59359081 42.4899292 60.91766357 C42.52688051 63.08666992 42.56492992 65.25565796 42.60430908 67.42462158 C42.70532853 72.99581586 42.78770269 78.56646696 42.83422852 84.13839722 C42.85107831 85.80492666 42.87493944 87.47140078 42.90600586 89.13772583 C42.94746913 91.44147054 42.9635499 93.74402824 42.97290039 96.0480957 C42.98748291 97.33119629 43.00206543 98.61429687 43.01708984 99.9362793 C42.46180249 103.88069452 41.39838782 105.53561381 38.54711914 108.2746582 C35.48461914 108.7746582 35.48461914 108.7746582 32.54711914 108.2746582 C30.51044299 106.72959354 29.68638836 105.55319664 28.54711914 103.2746582 C28.45380901 100.43685084 28.42136553 97.62376046 28.43359375 94.78588867 C28.43344772 93.90777527 28.4333017 93.02966187 28.43315125 92.12493896 C28.43384956 89.213883 28.44163819 86.30289053 28.44946289 83.3918457 C28.45132736 81.37688227 28.45275113 79.36191839 28.45375061 77.34695435 C28.45757352 72.03687291 28.4674019 66.72681871 28.47845459 61.41674805 C28.48867355 56.00089893 28.49324927 50.58504543 28.49829102 45.16918945 C28.50902435 34.53766705 28.52609808 23.90616489 28.54711914 13.2746582 C26.85184082 13.3060791 26.85184082 13.3060791 25.12231445 13.33813477 C20.92550345 13.41058517 16.72874762 13.45647605 12.53149414 13.49438477 C10.71564434 13.51448882 8.8998592 13.54177655 7.08422852 13.57641602 C4.47273809 13.62498859 1.86210416 13.64763847 -0.74975586 13.6652832 C-1.56031433 13.68592834 -2.3708728 13.70657349 -3.20599365 13.72784424 C-6.81828484 13.72927932 -9.00677885 13.58992646 -11.99682617 11.47680664 C-13.45288086 9.2746582 -13.45288086 9.2746582 -13.45288086 5.6496582 C-12.45288086 2.2746582 -12.45288086 2.2746582 -10.91868591 1.08088684 C-7.30778435 -0.09974674 -3.75855116 -0.01163023 0 0 Z " fill="#38B1E3" transform="translate(48.452880859375,28.725341796875)"/>
<path d="M0 0 C3 2 3 2 4 5 C4.09419061 6.38699309 4.13482974 7.77802131 4.14044189 9.16819763 C4.14900711 10.440457 4.14900711 10.440457 4.15774536 11.73841858 C4.15886322 12.66577316 4.15998108 13.59312775 4.16113281 14.54858398 C4.16609772 15.52770752 4.17106262 16.50683105 4.17617798 17.515625 C4.19080011 20.75912169 4.19760101 24.0025695 4.203125 27.24609375 C4.20887553 29.49666852 4.21463328 31.74724326 4.22039795 33.99781799 C4.23090748 38.71803008 4.23675075 43.43822513 4.24023438 48.15844727 C4.24572503 54.21260197 4.26976558 60.26653244 4.29820633 66.32061672 C4.31680901 70.96939253 4.322037 75.61811401 4.32357025 80.2669239 C4.32660166 82.49929088 4.33464655 84.7316568 4.34775543 86.96398735 C4.36476939 90.08350702 4.36294717 93.20247452 4.35644531 96.32202148 C4.3656601 97.24735184 4.37487488 98.17268219 4.3843689 99.12605286 C4.34366818 105.34531392 4.34366818 105.34531392 2.66131592 108.55018616 C0.20517986 110.69363161 -1.78735681 110.86887171 -5 111 C-7.74954328 110.03394425 -8.69007757 109.61984486 -10 107 C-10.0978944 105.61314109 -10.13500874 104.2217352 -10.14044189 102.83143616 C-10.14615204 101.95795029 -10.15186218 101.08446442 -10.15774536 100.18450928 C-10.15886322 99.22393616 -10.15998108 98.26336304 -10.16113281 97.27368164 C-10.16609772 96.26383713 -10.17106262 95.25399261 -10.17617798 94.21354675 C-10.1908212 90.86240974 -10.19760464 87.51132004 -10.203125 84.16015625 C-10.20887396 81.83849587 -10.21463172 79.51683551 -10.22039795 77.19517517 C-10.23091361 72.32355528 -10.23675281 67.45195192 -10.24023438 62.58032227 C-10.24572517 56.32762586 -10.26976347 50.07514656 -10.29820633 43.82251835 C-10.31679665 39.02623346 -10.32203635 34.23000128 -10.32357025 29.4336834 C-10.32660466 27.12792204 -10.33465951 24.82216178 -10.34775543 22.51643562 C-10.36474308 19.29602476 -10.36295361 16.07614993 -10.35644531 12.85571289 C-10.3656601 11.897164 -10.37487488 10.93861511 -10.3843689 9.95101929 C-10.37879974 9.07471359 -10.37323059 8.1984079 -10.36749268 7.29554749 C-10.36895924 6.53397874 -10.3704258 5.77240999 -10.3719368 4.9877634 C-9.30546771 -0.71182919 -4.94342408 -0.44137715 0 0 Z " fill="#232426" transform="translate(22,28)"/>
<path d="M0 0 C2.8966773 2.68977178 3.90110202 3.88739776 4.25 7.8125 C4.1675 8.534375 4.085 9.25625 4 10 C2.35 10.33 0.7 10.66 -1 11 C-1.556875 10.21625 -2.11375 9.4325 -2.6875 8.625 C-5.90495144 4.97275782 -8.48390356 4.13798987 -13.3046875 3.69921875 C-22.64045069 3.48332494 -22.64045069 3.48332494 -31 7 C-32.32700594 10.31751485 -32.13527092 11.59418724 -31 15 C-27.5443646 16.78166336 -24.31440104 17.34455588 -20.47265625 17.7109375 C-19.43302734 17.82179688 -18.39339844 17.93265625 -17.32226562 18.046875 C-15.15372168 18.26515863 -12.98442891 18.47612994 -10.81445312 18.6796875 C-4.8072319 19.33434443 -0.54879915 19.87835332 4 24 C6.71355172 27.99933349 6.88913967 32.33398384 6 37 C3.02238546 42.52077286 -1.18856881 45.09807707 -7 47 C-16.37277005 49.17472769 -26.42140993 48.84091594 -34.88671875 43.8984375 C-38.55700462 41.14350137 -39.97517725 38.40673781 -41 34 C-39 32 -39 32 -36.625 31.5 C-35.75875 31.665 -34.8925 31.83 -34 32 C-32.65668346 33.99330842 -31.32405988 35.99384866 -30 38 C-21.47766463 41.68203903 -11.67867888 40.72272279 -3 38 C-2.835 36.72125 -2.67 35.4425 -2.5 34.125 C-2.4071875 33.40570313 -2.314375 32.68640625 -2.21875 31.9453125 C-1.9627515 29.99501656 -1.9627515 29.99501656 -2 28 C-6.43601254 26.84992268 -10.76153554 25.98831101 -15.32421875 25.5625 C-16.10168457 25.4888623 -16.87915039 25.41522461 -17.68017578 25.33935547 C-19.23594508 25.19937131 -20.79299462 25.07278842 -22.35107422 24.96142578 C-27.83013615 24.46484486 -32.39318607 23.08929947 -37 20 C-39.71890069 16.45719 -40.2116493 13.78060207 -39.9375 9.4375 C-39.24713633 5.23896177 -38.3242085 2.83773897 -35 0 C-24.66524783 -6.25849534 -10.32622354 -6.32301561 0 0 Z " fill="#45B6E4" transform="translate(176,90)"/>
<path d="M0 0 C1.65 0 3.3 0 5 0 C9.29 9.57 13.58 19.14 18 29 C19.216875 26.545625 20.43375 24.09125 21.6875 21.5625 C24.64512104 15.62254579 27.67927049 9.74741646 31 4 C33.3190918 4.19970703 33.3190918 4.19970703 36 5 C37.57739258 7.08544922 37.57739258 7.08544922 38.89453125 9.8046875 C39.37470703 10.78050781 39.85488281 11.75632812 40.34960938 12.76171875 C40.83236328 13.78910156 41.31511719 14.81648438 41.8125 15.875 C42.31458984 16.89464844 42.81667969 17.91429688 43.33398438 18.96484375 C47 26.53628827 47 26.53628827 47 30 C47.66 30 48.32 30 49 30 C49.12383057 29.2769165 49.24766113 28.55383301 49.37524414 27.80883789 C49.99367175 25.02845114 50.86464768 22.66800235 51.99609375 20.05859375 C52.38990234 19.14529297 52.78371094 18.23199219 53.18945312 17.29101562 C53.60130859 16.34935547 54.01316406 15.40769531 54.4375 14.4375 C55.04948242 13.01920898 55.04948242 13.01920898 55.67382812 11.57226562 C57.36570056 7.66688308 59.06543611 3.79231182 61 0 C62.65 0 64.3 0 66 0 C67.42336361 3.63995589 66.85650542 5.85554039 65.375 9.30078125 C64.59699573 10.97776048 63.80448603 12.64806249 63 14.3125 C62.16142314 16.09572591 61.32420227 17.87959007 60.48828125 19.6640625 C60.06756348 20.55512695 59.6468457 21.44619141 59.21337891 22.36425781 C58.07616402 24.83455397 57.01216468 27.32003828 55.98046875 29.8359375 C55.67560547 30.57287842 55.37074219 31.30981934 55.05664062 32.0690918 C54.48838689 33.45413047 53.93061933 34.84353011 53.38476562 36.23754883 C51.51730309 40.71372547 51.51730309 40.71372547 48.98828125 42.11328125 C47 42 47 42 45.53076172 40.79394531 C43.75102417 38.7082178 42.69322029 36.66159018 41.51953125 34.18359375 C41.07802734 33.25482422 40.63652344 32.32605469 40.18164062 31.36914062 C39.72982422 30.40169922 39.27800781 29.43425781 38.8125 28.4375 C38.34908203 27.46619141 37.88566406 26.49488281 37.40820312 25.49414062 C34 18.27115933 34 18.27115933 34 16 C33.34 16 32.68 16 32 16 C31.75121094 16.81082031 31.50242188 17.62164062 31.24609375 18.45703125 C29.76501666 22.66811878 27.96052893 26.65114123 26.0625 30.6875 C25.71509766 31.44611328 25.36769531 32.20472656 25.00976562 32.98632812 C24.66751953 33.71658203 24.32527344 34.44683594 23.97265625 35.19921875 C23.66593994 35.85752686 23.35922363 36.51583496 23.04321289 37.1940918 C21.87161617 39.22224554 20.8924677 40.60401039 19 42 C16.9309082 41.89233398 16.9309082 41.89233398 15 41 C13.46343924 38.3419083 12.22510452 35.80201452 11 33 C10.56123535 32.04722168 10.1224707 31.09444336 9.67041016 30.11279297 C8.19329939 26.89820108 6.75053428 23.66974394 5.3125 20.4375 C4.81427734 19.33986328 4.31605469 18.24222656 3.80273438 17.11132812 C-0.78058442 6.79419668 -0.78058442 6.79419668 -1 1 C-0.67 0.67 -0.34 0.34 0 0 Z " fill="#43B5E3" transform="translate(187,96)"/>
<path d="M0 0 C4.40268535 3.06853827 6.92827268 6.72231805 8.625 11.8125 C8.71682942 13.35199329 8.75502352 14.89527855 8.75 16.4375 C8.75386719 17.63246094 8.75386719 17.63246094 8.7578125 18.8515625 C8.625 20.8125 8.625 20.8125 7.625 21.8125 C5.17669574 21.90093793 2.75679401 21.92778752 0.30859375 21.91015625 C-0.42246078 21.9087413 -1.15351532 21.90732635 -1.90672302 21.90586853 C-4.25035632 21.90025408 -6.59389539 21.88769922 -8.9375 21.875 C-10.52278508 21.86998686 -12.10807166 21.86542363 -13.69335938 21.86132812 C-17.5872761 21.85027997 -21.48112205 21.83300572 -25.375 21.8125 C-24.75431641 22.93817383 -24.13363281 24.06384766 -23.49414062 25.22363281 C-23.1450061 25.85682434 -22.79587158 26.49001587 -22.43615723 27.14239502 C-21.02443844 29.36423219 -19.90878047 30.11287405 -17.375 30.8125 C-14.69204637 31.12773089 -14.69204637 31.12773089 -11.875 31.0625 C-10.46734375 31.07023437 -10.46734375 31.07023437 -9.03125 31.078125 C-6.30568351 30.80556835 -4.75115835 30.10212441 -2.375 28.8125 C0.375 28.6875 0.375 28.6875 2.625 28.8125 C3.12 30.7925 3.12 30.7925 3.625 32.8125 C-1.80895734 37.60716824 -6.82868852 39.31859778 -14.00390625 39.125 C-19.60940508 38.38621926 -24.55139145 36.14347217 -28.3125 31.875 C-32.70043598 25.35957991 -33.18598683 19.53189314 -32.375 11.8125 C-30.78725817 6.50000166 -28.17857743 2.69464646 -23.375 -0.1875 C-15.50855555 -3.93342593 -7.70820098 -4.4189872 0 0 Z M-23.6875 9.25 C-25.74166038 11.85790817 -25.74166038 11.85790817 -25.375 15.8125 C-16.135 15.8125 -6.895 15.8125 2.625 15.8125 C-0.15006585 9.33734636 -1.36088455 6.81955772 -7.375 3.8125 C-14.47732205 3.08691897 -18.66086401 3.95165395 -23.6875 9.25 Z " fill="#303233" transform="translate(342.375,41.1875)"/>
<path d="M0 0 C3.76254381 3.52499013 5.67615978 7.16156705 6.1484375 12.30859375 C6.16555965 14.48995539 6.09905592 16.62382898 5.91796875 18.796875 C2.95986399 20.27592738 -0.03674675 19.91878403 -3.27734375 19.89453125 C-3.98478729 19.8931163 -4.69223083 19.89170135 -5.42111206 19.89024353 C-7.68312794 19.884641 -9.94504523 19.87208818 -12.20703125 19.859375 C-13.7395819 19.85436032 -15.27213411 19.84979736 -16.8046875 19.84570312 C-20.56384013 19.83467077 -24.32291897 19.81740452 -28.08203125 19.796875 C-25.76939056 24.5386452 -25.76939056 24.5386452 -22.17578125 28.21875 C-19.5757813 28.93666043 -17.27970632 29.06169739 -14.58203125 29.046875 C-13.174375 29.05460937 -13.174375 29.05460937 -11.73828125 29.0625 C-9.01271476 28.78994335 -7.4581896 28.08649941 -5.08203125 26.796875 C-2.33203125 26.671875 -2.33203125 26.671875 -0.08203125 26.796875 C0.41296875 28.776875 0.41296875 28.776875 0.91796875 30.796875 C-4.51598859 35.59154324 -9.53571977 37.30297278 -16.7109375 37.109375 C-22.31643633 36.37059426 -27.2584227 34.12784717 -31.01953125 29.859375 C-35.41056185 23.33935987 -35.88447493 17.52039546 -35.08203125 9.796875 C-33.39426443 3.94722865 -30.19242764 0.13828802 -25.08203125 -3.203125 C-16.05757475 -6.51209238 -7.80773763 -5.80398195 0 0 Z M-25.08203125 4.796875 C-27.68894254 8.18585968 -28.08203125 9.42422113 -28.08203125 13.796875 C-19.17203125 13.796875 -10.26203125 13.796875 -1.08203125 13.796875 C-2.26471446 6.70077572 -2.72736697 6.6216352 -8.08203125 2.796875 C-13.52461955 0.07558085 -20.27177781 1.47550953 -25.08203125 4.796875 Z " fill="#2F3132" transform="translate(297.08203125,43.203125)"/>
<path d="M0 0 C1.625 0.828125 1.625 0.828125 3.8125 2.328125 C4.1425 1.338125 4.4725 0.348125 4.8125 -0.671875 C7.2875 -0.176875 7.2875 -0.176875 9.8125 0.328125 C9.8125 13.198125 9.8125 26.068125 9.8125 39.328125 C5.8125 40.328125 5.8125 40.328125 3.8125 39.328125 C3.8125 38.338125 3.8125 37.348125 3.8125 36.328125 C2.69875 36.988125 1.585 37.648125 0.4375 38.328125 C-5.12408271 41.079438 -10.52455008 41.50505221 -16.4609375 39.59765625 C-22.26663221 36.95379899 -25.58276227 33.12958631 -28.1875 27.328125 C-29.92393176 20.00430393 -28.9708182 13.34059095 -25.9375 6.515625 C-19.80110219 -1.15487226 -9.15001414 -2.81036149 0 0 Z M-20 10.328125 C-22.47188333 14.49129693 -22.67111436 18.60840704 -22.1875 23.328125 C-20.39492802 28.50666628 -18.00535997 30.77749325 -13.1875 33.328125 C-9.22973471 34.59124158 -7.49412914 34.42686998 -3.5 33.140625 C0.26531933 31.08035593 1.94657578 29.53229575 3.5 25.578125 C4.40760575 19.0433636 4.22277196 14.12558734 0.8125 8.328125 C-6.0588784 3.48692658 -14.25244463 3.98599494 -20 10.328125 Z " fill="#242527" transform="translate(217.1875,39.671875)"/>
<path d="M0 0 C1.66611905 -0.042721 3.33382885 -0.04063832 5 0 C6.94090826 1.94090826 6.39919435 5.47293902 6.5625 8.0625 C6.64628906 9.35285156 6.73007812 10.64320312 6.81640625 11.97265625 C6.87699219 12.97167969 6.93757813 13.97070312 7 15 C7.556875 14.71125 8.11375 14.4225 8.6875 14.125 C14.9056252 11.09996612 19.8770679 9.64648069 26.58203125 11.84765625 C31.86404033 14.1290511 34.83765127 16.16283004 37.25878906 21.4453125 C38.82343992 26.83810121 38.40272041 32.43745264 38.25 38 C38.23195313 39.25167969 38.21390625 40.50335938 38.1953125 41.79296875 C38.14844512 44.86278242 38.0828431 47.93098174 38 51 C36.68 51.66 35.36 52.32 34 53 C33.01 52.34 32.02 51.68 31 51 C30.64697266 48.3737793 30.64697266 48.3737793 30.6640625 45.07421875 C30.65117187 43.88505859 30.63828125 42.69589844 30.625 41.47070312 C30.625 38.9602743 30.63273945 36.44983287 30.6484375 33.93945312 C30.8704563 26.7863559 30.8704563 26.7863559 27.7734375 20.67578125 C23.44961506 18.06321811 19.8977793 18.22666643 15 19 C12.0745356 20.3509288 12.0745356 20.3509288 10 22 C9.34 22 8.68 22 8 22 C7.19070518 25.60870608 6.82185917 29.04461938 6.68359375 32.73828125 C6.64169922 33.80498047 6.59980469 34.87167969 6.55664062 35.97070312 C6.51732422 37.07349609 6.47800781 38.17628906 6.4375 39.3125 C6.37272461 40.99569336 6.37272461 40.99569336 6.30664062 42.71289062 C6.20085213 45.47514569 6.09876328 48.2374863 6 51 C4.68 51.66 3.36 52.32 2 53 C1.01 52.34 0.02 51.68 -1 51 C-1.36749268 48.91271973 -1.36749268 48.91271973 -1.35644531 46.30664062 C-1.35944641 45.33223022 -1.36244751 44.35781982 -1.36553955 43.35388184 C-1.35319275 42.29866333 -1.34084595 41.24344482 -1.328125 40.15625 C-1.32625183 39.07621704 -1.32437866 37.99618408 -1.32244873 36.88342285 C-1.31571757 34.5968925 -1.30178216 32.31037386 -1.28125 30.02392578 C-1.25012894 26.5145402 -1.24028409 23.00560355 -1.234375 19.49609375 C-1.22520403 17.27864033 -1.21482796 15.0611915 -1.203125 12.84375 C-1.19887512 11.78853149 -1.19462524 10.73331299 -1.19024658 9.64611816 C-1.18063904 8.67170776 -1.17103149 7.69729736 -1.16113281 6.69335938 C-1.15430481 5.83335327 -1.14747681 4.97334717 -1.14044189 4.08728027 C-1 2 -1 2 0 0 Z " fill="#49B7E4" transform="translate(346,85)"/>
<path d="M0 0 C1.97929732 2.10699393 2.8412389 3.17466697 2.9375 6.0625 C2.2775 6.7225 1.6175 7.3825 0.9375 8.0625 C-2.95829108 7.75493755 -5.06542026 6.46016379 -8.0625 4.0625 C-14.21067098 2.01310967 -21.58147149 1.98929252 -27.5625 4.625 C-31.40181109 6.93658522 -33.83128957 9.72616136 -35.0625 14.0625 C-35.87751593 20.95734741 -35.72623234 27.07840384 -32.0625 33.0625 C-27.86644704 37.25855296 -24.01618903 39.93733666 -17.96484375 40.12890625 C-12.70590069 39.83123023 -9.17528631 38.32829332 -4.88671875 35.31640625 C-3.01479093 34.0297064 -1.11220271 33.03531696 0.9375 32.0625 C1.9275 32.7225 2.9175 33.3825 3.9375 34.0625 C3.08359268 39.13120626 -0.05680507 41.17936877 -4.0625 44.0625 C-10.3604946 47.84129676 -16.8458484 47.96243874 -24.0625 47.0625 C-30.91170799 44.95144274 -36.30843124 41.20777427 -40.0625 35.0625 C-43.53509932 28.09089376 -44.53307568 20.0988264 -42.3359375 12.57421875 C-39.2942027 5.21717725 -35.33584448 0.12103735 -27.96875 -3.19140625 C-18.67269739 -6.82982028 -8.33143028 -5.27090487 0 0 Z " fill="#313234" transform="translate(180.0625,32.9375)"/>
<path d="M0 0 C3.38953392 1.94561694 5.14560944 3.12388201 6.4765625 6.8671875 C6.4765625 7.5890625 6.4765625 8.3109375 6.4765625 9.0546875 C4.2265625 9.7421875 4.2265625 9.7421875 1.4765625 10.0546875 C-0.6484375 8.6796875 -0.6484375 8.6796875 -2.5234375 7.0546875 C-7.31746613 5.45667796 -11.67586301 5.31565771 -16.3359375 7.1796875 C-19.78136163 10.13290818 -21.24082442 12.93508941 -21.84375 17.45703125 C-22.10136369 23.16746794 -21.4148491 26.60735995 -17.5234375 31.0546875 C-13.96165582 33.42920862 -11.77797102 33.77105193 -7.5234375 34.0546875 C-2.71394647 33.17166326 -2.71394647 33.17166326 1.1015625 30.3671875 C1.5553125 29.9340625 2.0090625 29.5009375 2.4765625 29.0546875 C5.1640625 29.3671875 5.1640625 29.3671875 7.4765625 30.0546875 C7.19367773 33.44930478 6.73524191 34.79600809 4.2890625 37.2421875 C-1.81600588 41.1765649 -7.76994597 41.94243634 -14.82421875 40.625 C-20.73537745 39.01557528 -24.28462075 36.25803244 -27.5234375 31.0546875 C-30.34187226 25.2525994 -30.27135378 19.3738169 -29.5234375 13.0546875 C-27.2415295 7.05760697 -23.04548116 2.70470795 -17.23046875 -0.01953125 C-11.72083953 -1.90377674 -5.48043061 -2.05304057 0 0 Z " fill="#44B5E3" transform="translate(330.5234375,96.9453125)"/>
<path d="M0 0 C1.2065625 0.0309375 1.2065625 0.0309375 2.4375 0.0625 C4.25839479 3.70428957 3.48871113 8.06803148 3.4375 12.0625 C6.7375 12.0625 10.0375 12.0625 13.4375 12.0625 C13.7675 13.3825 14.0975 14.7025 14.4375 16.0625 C12.4375 18.0625 12.4375 18.0625 10.2734375 18.2578125 C9.46132813 18.23460938 8.64921875 18.21140625 7.8125 18.1875 C6.99523437 18.16945313 6.17796875 18.15140625 5.3359375 18.1328125 C4.70945312 18.10960938 4.08296875 18.08640625 3.4375 18.0625 C3.57561922 22.37528385 3.72428109 26.68763953 3.875 31 C3.91431641 32.23169922 3.95363281 33.46339844 3.99414062 34.73242188 C4.05698242 36.4871582 4.05698242 36.4871582 4.12109375 38.27734375 C4.15775146 39.36136475 4.19440918 40.44538574 4.23217773 41.56225586 C4.16114265 44.001763 4.16114265 44.001763 5.4375 45.0625 C7.10352403 45.10877845 8.77126361 45.10036901 10.4375 45.0625 C12.10373639 45.02463099 13.77147597 45.01622155 15.4375 45.0625 C16.4375 46.0625 16.4375 46.0625 16.5 48.625 C16.479375 49.429375 16.45875 50.23375 16.4375 51.0625 C11.79167484 53.61021057 7.43134688 53.47380455 2.4375 52.0625 C-1.08778346 49.345094 -2.81022134 47.40171654 -3.5625 43.0625 C-3.64309997 41.1107673 -3.67012243 39.15649582 -3.66015625 37.203125 C-3.65532227 35.53056641 -3.65532227 35.53056641 -3.65039062 33.82421875 C-3.64201172 32.66535156 -3.63363281 31.50648437 -3.625 30.3125 C-3.62048828 29.13816406 -3.61597656 27.96382812 -3.61132812 26.75390625 C-3.59955094 23.85671928 -3.58310326 20.95963546 -3.5625 18.0625 C-5.5425 18.0625 -7.5225 18.0625 -9.5625 18.0625 C-10.625 16.1875 -10.625 16.1875 -11.5625 14.0625 C-11.2325 13.4025 -10.9025 12.7425 -10.5625 12.0625 C-8.2525 12.0625 -5.9425 12.0625 -3.5625 12.0625 C-3.57410156 11.28003906 -3.58570313 10.49757813 -3.59765625 9.69140625 C-3.60667969 8.67949219 -3.61570312 7.66757813 -3.625 6.625 C-3.63660156 5.61566406 -3.64820313 4.60632813 -3.66015625 3.56640625 C-3.52706167 0.15386128 -3.42090834 0.08343679 0 0 Z " fill="#4AB8E5" transform="translate(281.5625,84.9375)"/>
<path d="M0 0 C2.5625 0.25 2.5625 0.25 5 1 C5.33 1.66 5.66 2.32 6 3 C7.299375 2.2575 7.299375 2.2575 8.625 1.5 C12.10749623 -0.0477761 14.24759458 -0.26802896 18 0 C19.0625 1.875 19.0625 1.875 20 4 C19.67 4.66 19.34 5.32 19 6 C16.50028567 6.69436509 13.98767547 7.21532523 11.4453125 7.73046875 C8.55384536 9.23162981 7.63402182 10.72951302 6.5234375 13.7644043 C5.44235388 18.38170035 5.49958623 23.09099025 5.4375 27.8125 C5.40316218 29.88167165 5.36061393 31.95072862 5.30859375 34.01953125 C5.29010376 35.38235229 5.29010376 35.38235229 5.27124023 36.77270508 C5 39 5 39 3 41 C-0.53571429 40.46428571 -0.53571429 40.46428571 -2 39 C-2.11340974 36.28445608 -2.1641802 33.59529957 -2.16796875 30.87890625 C-2.17129715 30.06381088 -2.17462555 29.24871552 -2.17805481 28.40892029 C-2.18312742 26.68139207 -2.18546303 24.95385402 -2.18530273 23.22631836 C-2.18748792 20.57714755 -2.20563621 17.92839384 -2.22460938 15.27929688 C-2.22754344 13.6041681 -2.22952815 11.92903733 -2.23046875 10.25390625 C-2.23765427 9.45803604 -2.24483978 8.66216583 -2.25224304 7.84217834 C-2.22882227 2.22882227 -2.22882227 2.22882227 0 0 Z " fill="#343537" transform="translate(361,39)"/>
<path d="M0 0 C1.32 0 2.64 0 4 0 C4.66 0.99 5.32 1.98 6 3 C6.680625 2.505 7.36125 2.01 8.0625 1.5 C11.59465009 -0.30365111 14.08636991 -0.23021353 18 0 C18.33 1.65 18.66 3.3 19 5 C18.31292969 5.21914063 17.62585938 5.43828125 16.91796875 5.6640625 C16.01691406 5.98117188 15.11585938 6.29828125 14.1875 6.625 C13.29417969 6.92664062 12.40085938 7.22828125 11.48046875 7.5390625 C7.9652996 9.60941409 7.30235648 11.10973516 6 15 C5.56397157 19.08163889 5.48865848 23.14757689 5.4375 27.25 C5.40316465 29.42202864 5.36061795 31.59394804 5.30859375 33.765625 C5.29626709 34.72243164 5.28394043 35.67923828 5.27124023 36.66503906 C5 39 5 39 3 41 C-0.53571429 40.46428571 -0.53571429 40.46428571 -2 39 C-2.11340974 36.28445608 -2.1641802 33.59529957 -2.16796875 30.87890625 C-2.17129715 30.06381088 -2.17462555 29.24871552 -2.17805481 28.40892029 C-2.18312742 26.68139207 -2.18546303 24.95385402 -2.18530273 23.22631836 C-2.18748792 20.57714755 -2.20563621 17.92839384 -2.22460938 15.27929688 C-2.22754344 13.6041681 -2.22952815 11.92903733 -2.23046875 10.25390625 C-2.23765427 9.45803604 -2.24483978 8.66216583 -2.25224304 7.84217834 C-2.22882227 2.22882227 -2.22882227 2.22882227 0 0 Z " fill="#353637" transform="translate(240,39)"/>
<path d="M0 0 C2.5 0.125 2.5 0.125 3.5 1.125 C3.60103255 3.92493597 3.63970088 6.69968644 3.6328125 9.5 C3.63376923 10.33966309 3.63472595 11.17932617 3.63571167 12.04443359 C3.63639348 13.82324295 3.63453917 15.60205477 3.63037109 17.38085938 C3.62502283 20.11333776 3.63031605 22.84565176 3.63671875 25.578125 C3.63605797 27.3020837 3.63477681 29.02604229 3.6328125 30.75 C3.63483673 31.57290527 3.63686096 32.39581055 3.63894653 33.24365234 C3.61495054 39.01004946 3.61495054 39.01004946 2.5 40.125 C0 40.25 0 40.25 -2.5 40.125 C-4.34276509 38.28223491 -3.62874411 35.69536241 -3.63894653 33.24365234 C-3.6369223 32.42074707 -3.63489807 31.5978418 -3.6328125 30.75 C-3.63376923 29.91033691 -3.63472595 29.07067383 -3.63571167 28.20556641 C-3.63639348 26.42675705 -3.63453917 24.64794523 -3.63037109 22.86914062 C-3.62502283 20.13666224 -3.63031605 17.40434824 -3.63671875 14.671875 C-3.63605797 12.9479163 -3.63477681 11.22395771 -3.6328125 9.5 C-3.63483673 8.67709473 -3.63686096 7.85418945 -3.63894653 7.00634766 C-3.61054191 0.1805271 -3.61054191 0.1805271 0 0 Z " fill="#4CB9E5" transform="translate(262.5,96.875)"/>
<path d="M0 0 C1.32 0.66 2.64 1.32 4 2 C4 4.31 4 6.62 4 9 C2.02 9.99 2.02 9.99 0 11 C-0.99 10.34 -1.98 9.68 -3 9 C-3.375 5.5 -3.375 5.5 -3 2 C-2.01 1.34 -1.02 0.68 0 0 Z " fill="#57BDE6" transform="translate(262,84)"/>
<path d="M0 0 C0.66 0 1.32 0 2 0 C1.67 2.97 1.34 5.94 1 9 C20.8 9.495 20.8 9.495 41 10 C41 10.33 41 10.66 41 11 C35.19761976 11.07401964 29.39551278 11.12853989 23.59277344 11.16479492 C21.61778987 11.17990462 19.64283996 11.20039328 17.66796875 11.22631836 C14.83324894 11.26260619 11.99897174 11.27970416 9.1640625 11.29296875 C8.27756012 11.30845261 7.39105774 11.32393646 6.47769165 11.33988953 C5.65699188 11.34011612 4.83629211 11.34034271 3.99072266 11.34057617 C3.26680328 11.34723801 2.54288391 11.35389984 1.79702759 11.36076355 C0 11 0 11 -2 8 C-1.43396226 1.43396226 -1.43396226 1.43396226 0 0 Z " fill="#35AFE2" transform="translate(37,30)"/>
<path d="M0 0 C0.66 0 1.32 0 2 0 C1.67 2.97 1.34 5.94 1 9 C2.32 9.66 3.64 10.32 5 11 C2.625 11.1875 2.625 11.1875 0 11 C-2 8 -2 8 -1.6875 4.375 C-1 1 -1 1 0 0 Z " fill="#6BC5E8" transform="translate(37,30)"/>
<path d="M0 0 C-1.44077046 3.36179774 -3.24750021 5.59156268 -6 8 C-6.66 8 -7.32 8 -8 8 C-6.65580512 3.85539913 -4.87800266 0 0 0 Z " fill="#494B4B" transform="translate(199,41)"/>
<path d="M0 0 C-1.39332574 3.36720387 -2.9789286 4.9859524 -6 7 C-5.37162381 3.35541809 -4.14650034 0 0 0 Z " fill="#4BB8E4" transform="translate(311,99)"/>
<path d="M0 0 C0.66 0.33 1.32 0.66 2 1 C0.02 3.31 -1.96 5.62 -4 8 C-4 4.09161134 -2.49432124 2.88405893 0 0 Z " fill="#5B5C5C" transform="translate(269,42)"/>
</svg>
