<svg xmlns="http://www.w3.org/2000/svg" xmlns:xlink="http://www.w3.org/1999/xlink" width="180" zoomAndPan="magnify" viewBox="0 0 135 149.999998" height="200" preserveAspectRatio="xMidYMid meet" version="1.0"><defs><clipPath id="3bc79ef98c"><path d="M 22 1.929688 L 135 1.929688 L 135 148.179688 L 22 148.179688 Z M 22 1.929688 " clip-rule="nonzero"/></clipPath></defs><g clip-path="url(#3bc79ef98c)"><path fill="#000000" d="M 119.769531 25.554688 C 118.085938 24.429688 116.960938 22.742188 115.273438 21.617188 C 114.148438 19.929688 112.464844 18.804688 111.339844 17.117188 C 101.785156 7.554688 96.164062 1.929688 89.980469 1.929688 L 45.019531 1.929688 C 32.652344 1.929688 22.535156 12.054688 22.535156 24.429688 L 22.535156 64.929688 L 33.777344 64.929688 L 33.777344 24.429688 C 33.777344 18.242188 38.835938 13.179688 45.019531 13.179688 L 86.046875 13.179688 C 89.980469 14.304688 89.980469 19.367188 89.980469 23.867188 L 89.980469 40.742188 C 89.980469 44.117188 92.230469 46.367188 95.601562 46.367188 L 112.464844 46.367188 C 118.085938 46.367188 123.703125 46.367188 123.703125 51.992188 L 123.703125 125.117188 C 123.703125 131.304688 118.644531 136.367188 112.464844 136.367188 L 45.019531 136.367188 C 38.835938 136.367188 33.777344 131.304688 33.777344 125.117188 L 33.777344 107.117188 L 22.535156 107.117188 L 22.535156 125.679688 C 22.535156 138.054688 32.652344 148.179688 45.019531 148.179688 L 112.464844 148.179688 C 124.828125 148.179688 134.945312 138.054688 134.945312 125.679688 L 134.945312 46.929688 C 134.945312 40.742188 129.324219 35.117188 119.769531 25.554688 Z M 119.769531 25.554688 " fill-opacity="1" fill-rule="nonzero"/></g><path fill="#000000" d="M 95.601562 63.804688 L 5.675781 63.804688 C 2.300781 63.804688 0.0546875 66.617188 0.0546875 69.429688 L 0.0546875 103.179688 C 0.0546875 105.992188 2.300781 108.804688 5.675781 108.804688 L 95.601562 108.804688 C 98.976562 108.804688 101.222656 105.992188 101.222656 103.179688 L 101.222656 69.429688 C 101.222656 66.617188 98.976562 63.804688 95.601562 63.804688 Z M 30.40625 88.554688 C 28.15625 90.804688 24.785156 91.929688 20.851562 91.929688 C 20.289062 91.929688 19.726562 91.929688 19.726562 91.929688 L 19.726562 102.617188 C 19.726562 103.179688 19.164062 103.742188 18.601562 103.742188 L 11.855469 103.742188 C 11.855469 103.179688 11.296875 102.617188 11.296875 102.617188 L 11.296875 71.117188 C 11.296875 70.554688 11.855469 70.554688 11.855469 69.992188 C 14.105469 69.429688 17.476562 69.429688 20.851562 69.429688 C 24.785156 69.429688 28.15625 70.554688 30.40625 72.242188 C 32.652344 73.929688 33.777344 76.742188 33.777344 80.117188 C 33.214844 83.492188 32.652344 86.304688 30.40625 88.554688 Z M 61.316406 99.242188 C 58.507812 102.054688 53.449219 103.742188 47.265625 103.742188 C 43.894531 103.742188 41.082031 103.742188 39.960938 103.179688 C 39.960938 103.179688 39.398438 102.617188 39.398438 102.054688 L 39.398438 70.554688 C 39.398438 69.992188 39.960938 69.992188 39.960938 69.429688 C 42.769531 69.429688 45.582031 69.429688 48.953125 69.429688 C 54.574219 69.429688 58.507812 70.554688 61.316406 72.804688 C 64.691406 75.617188 66.375 80.117188 66.375 85.742188 C 66.375 93.054688 63.566406 96.992188 61.316406 99.242188 Z M 92.230469 76.179688 C 92.230469 76.742188 91.667969 77.304688 91.105469 77.304688 L 80.988281 77.304688 L 80.988281 82.929688 L 90.542969 82.929688 C 91.105469 82.929688 91.667969 83.492188 91.667969 84.054688 L 91.667969 89.679688 C 91.667969 90.242188 91.105469 90.804688 90.542969 90.804688 L 80.988281 90.804688 L 80.988281 102.617188 C 80.988281 103.179688 80.425781 103.742188 79.863281 103.742188 L 73.683594 103.742188 C 73.121094 103.742188 72.558594 103.179688 72.558594 102.617188 L 72.558594 70.554688 C 72.558594 69.992188 73.121094 69.429688 73.683594 69.429688 L 91.105469 69.429688 C 91.667969 69.429688 92.230469 69.992188 92.230469 70.554688 Z M 92.230469 76.179688 " fill-opacity="1" fill-rule="nonzero"/><path fill="#000000" d="M 49.515625 76.742188 C 48.390625 76.742188 47.828125 76.742188 47.265625 76.742188 L 47.265625 96.429688 C 47.828125 96.429688 48.390625 96.429688 48.390625 96.429688 C 51.199219 96.429688 53.449219 95.867188 54.574219 94.179688 C 56.257812 92.492188 56.820312 89.679688 56.820312 86.304688 C 57.945312 80.117188 55.136719 76.742188 49.515625 76.742188 Z M 49.515625 76.742188 " fill-opacity="1" fill-rule="nonzero"/><path fill="#000000" d="M 20.851562 76.742188 C 20.289062 76.742188 19.726562 76.742188 19.164062 76.742188 L 19.164062 84.617188 C 19.726562 84.617188 19.726562 84.617188 20.289062 84.617188 C 23.097656 84.617188 24.785156 82.929688 24.785156 80.117188 C 25.347656 77.304688 23.097656 76.742188 20.851562 76.742188 Z M 20.851562 76.742188 " fill-opacity="1" fill-rule="nonzero"/></svg>